<?xml version="1.0" encoding="UTF-8" standalone="no"?>
<svg
   xmlns:dc="http://purl.org/dc/elements/1.1/"
   xmlns:cc="http://creativecommons.org/ns#"
   xmlns:rdf="http://www.w3.org/1999/02/22-rdf-syntax-ns#"
   xmlns:svg="http://www.w3.org/2000/svg"
   xmlns="http://www.w3.org/2000/svg"
   xmlns:sodipodi="http://sodipodi.sourceforge.net/DTD/sodipodi-0.dtd"
   xmlns:inkscape="http://www.inkscape.org/namespaces/inkscape"
   sodipodi:docname="Grim reaper facepalm.svg"
   inkscape:version="1.0 (4035a4fb49, 2020-05-01)"
   id="svg618"
   version="1.1"
   viewBox="0 0 78.810677 127.22422"
   height="127.22422mm"
   width="78.810677mm">
  <title
     id="title658">Grim reaper facepalm</title>
  <defs
     id="defs612" />
  <sodipodi:namedview
     inkscape:window-maximized="1"
     inkscape:window-y="-9"
     inkscape:window-x="-9"
     inkscape:window-height="1001"
     inkscape:window-width="1920"
     fit-margin-bottom="0"
     fit-margin-right="0"
     fit-margin-left="0"
     fit-margin-top="0"
     inkscape:snap-global="false"
     showgrid="false"
     inkscape:document-rotation="0"
     inkscape:current-layer="layer1"
     inkscape:document-units="mm"
     inkscape:cy="232.42168"
     inkscape:cx="456.41577"
     inkscape:zoom="1.4"
     inkscape:pageshadow="2"
     inkscape:pageopacity="0.0"
     borderopacity="1.0"
     bordercolor="#666666"
     pagecolor="#ffffff"
     id="base" />
  <metadata
     id="metadata615">
    <rdf:RDF>
      <cc:Work
         rdf:about="">
        <dc:format>image/svg+xml</dc:format>
        <dc:type
           rdf:resource="http://purl.org/dc/dcmitype/StillImage" />
        <dc:title>Grim reaper facepalm</dc:title>
        <cc:license
           rdf:resource="http://creativecommons.org/publicdomain/zero/1.0/" />
      </cc:Work>
      <cc:License
         rdf:about="http://creativecommons.org/publicdomain/zero/1.0/">
        <cc:permits
           rdf:resource="http://creativecommons.org/ns#Reproduction" />
        <cc:permits
           rdf:resource="http://creativecommons.org/ns#Distribution" />
        <cc:permits
           rdf:resource="http://creativecommons.org/ns#DerivativeWorks" />
      </cc:License>
    </rdf:RDF>
  </metadata>
  <g
     transform="translate(200.13817,13.848767)"
     id="layer1"
     inkscape:groupmode="layer"
     inkscape:label="Lager 1">
    <path
       transform="scale(0.26458333)"
       d="M -756.42773,-52.341797 V 425.67969 c 23.2758,0.11552 43.00614,-0.0461 44.66211,-0.39649 2.08894,-0.44303 3.34123,-0.28345 3.58203,0.45703 0.27363,0.84023 0.741,0.83645 1.79492,-0.0117 1.01707,-0.8191 3.56965,-0.87948 8.91601,-0.21485 11.12727,1.38403 108.29967,1.17666 109.25782,-0.23242 0.50385,-0.74143 1.01322,-0.77523 1.50195,-0.10156 1.00842,1.39011 10.23,1.96307 10.24414,0.63672 0.008,-0.572 0.90985,-1.0293 2.00977,-1.01758 1.09991,0.0113 1.99567,0.43883 1.99023,0.94922 -0.004,0.51042 2.4093,1.257 5.36523,1.6582 4.0941,0.55593 5.95475,0.35705 7.8125,-0.83203 1.88459,-1.20628 3.19162,-1.3348 5.75391,-0.57031 3.96181,1.18231 71.05217,1.71858 71.06445,0.56836 0.004,-0.43544 1.1329,-0.78029 2.50782,-0.76563 1.37495,0.0151 2.4962,0.48483 2.49023,1.04492 -0.008,0.57086 2.07722,0.96977 4.74023,0.90821 2.61332,-0.0605 6.10703,0.20668 7.76368,0.59375 3.32976,0.77741 7.94111,-1.60524 5.91211,-3.05469 -0.76113,-0.54365 -1.11486,-18.84302 -1.16407,-60.28321 -0.0389,-32.72728 -0.0993,-77.80203 -0.13672,-100.16406 -0.0453,-27.08401 0.27321,-40.86482 0.95704,-41.27734 0.63859,-0.38536 0.70819,-1.48311 0.18359,-2.9082 -0.46356,-1.25957 -0.78913,-33.53661 -0.72461,-71.72657 0.0642,-38.18996 0.0334,-80.23764 -0.0645,-93.43945 -0.0994,-13.20181 -0.27923,-42.455261 -0.39844,-65.0078125 -0.11943,-22.5525545 -0.32627,-41.1350105 -0.46094,-41.2929685 -0.14664,-0.171893 -14.16185,-0.397285 -33.79101,-0.605469 v 0.002 c -32.71522,-0.346923 -81.02523,-0.647807 -106.7168,-0.580078 -20.62673,0.05439 -74.62818,-0.04522 -120.00391,-0.220703 z M -530.88281,-5.6875 c 2.1837,-0.011981 4.69953,0.1225856 7.95117,0.3222656 11.85808,0.7282126 23.97021,3.5354618 34.98047,8.109375 10.68219,4.437617 15.4306,6.1202413 17.34179,6.140625 1.06443,0.011339 2.69824,0.723522 3.62891,1.5839844 1.54938,1.432507 1.74735,1.346891 2.36719,-1.015625 1.66144,-6.3328781 2.43549,0.04508 2.27539,18.779297 -0.096,11.13183 -0.0573,37.905845 0.0859,59.496094 l 0.002,-0.002 c 0.23017,34.644834 -0.0777,42.645144 -1.45898,37.986324 -0.20448,-0.68972 -0.66149,-3.95775 -1.01563,-7.26172 -0.35414,-3.30396 -0.81421,-7.35941 -1.02148,-9.01172 -0.20712,-1.6523 -0.47741,-4.81585 -0.60157,-7.03125 -0.12434,-2.21542 -0.49431,-4.471857 -0.82226,-5.015618 -0.32806,-0.543745 -0.875,-2.786779 -1.21289,-4.986328 -1.05279,-6.852204 -2.62127,-13.906586 -3.74024,-16.808594 -1.32268,-3.430386 -4.11678,-3.247153 -3.98828,0.261719 0.0816,2.233274 -1.10877,3.903286 -2.79883,3.925781 -0.35149,0.0045 -0.91708,-1.57125 -1.25781,-3.5 -0.34091,-1.928738 -1.00459,-3.510613 -1.47461,-3.515625 -0.47006,-0.0049 -0.84547,-1.472283 -0.83398,-3.259765 0.0113,-1.787475 -0.46474,-4.555166 -1.06055,-6.150391 -1.27971,-3.426474 -0.39658,-4.866437 1.42383,-2.320313 1.20257,1.681943 1.309,1.665021 1.8418,-0.287109 0.42051,-1.54066 -0.0469,-2.312508 -1.81836,-3.007812 -2.17856,-0.854979 -3.21727,-3.074946 -3.28711,-7.015625 -0.034,-1.964032 -0.68555,-6.371074 -1.03516,-7.011719 -0.15118,-0.276624 -0.37417,-0.954528 -0.49609,-1.505859 -0.12208,-0.551324 -0.32496,-1.341971 -0.45313,-1.75586 -0.12737,-0.413877 -0.32356,-1.090191 -0.43555,-1.503906 -0.11187,-0.413715 -0.45934,-1.429457 -0.76953,-2.257813 -0.3103,-0.828351 -0.82143,-2.747723 -1.13671,-4.263671 -0.42898,-2.062638 -1.16996,-2.762314 -2.94532,-2.78125 -2.60288,-0.02778 -4.08898,-3.485667 -2.8457,-6.625 0.53253,-1.344755 0.30826,-1.601444 -0.98438,-1.121094 -2.20932,0.820884 -4.77323,-3.133199 -3.96093,-6.109375 0.72155,-2.643634 3.3808,-2.962231 3.35351,-0.402344 -0.0113,1.067077 0.78187,1.852953 1.96875,1.955078 2.16786,0.186573 6.56924,4.528678 7.42383,7.324219 0.37901,1.239762 1.25983,1.623269 3.01758,1.30664 2.00046,-0.36034 2.47885,-0.04322 2.46094,1.636719 -0.0151,1.442609 0.44236,1.91253 1.48437,1.525391 1.73261,-0.643769 2.03895,1.198421 0.36719,2.207031 -0.77673,0.468572 -0.70503,0.939472 0.23437,1.548828 1.93871,1.257609 4.49706,1.130963 6.03907,-0.296875 0.73409,-0.679705 2.01101,-1.2295 2.83593,-1.220703 2.64012,0.02816 2.46684,-6.05692 -0.3164,-11.164062 -1.38425,-2.539957 -2.51273,-5.12392 -2.51367,-5.742188 -9.9e-4,-0.618275 -1.67409,-1.925358 -3.72071,-2.90625 -2.04654,-0.980881 -5.86497,-2.9668112 -8.48437,-4.4101561 -7.4722,-4.1173481 -26.4013,-9.2904973 -28.07813,-7.67382815 -1.20011,1.15709469 -5.26656,1.17033854 -5.96093,0.0195313 -0.28498,-0.47187761 -3.52803,-1.17131995 -7.20899,-1.55468745 -5.64246,-0.5876581 -7.20217,-0.38834 -9.93359,1.25976557 -1.78186,1.07517393 -3.48155,2.84488043 -3.7793,3.93554693 -0.34809,1.2759304 -1.38654,1.9733021 -2.91211,1.9570312 -1.30401,-0.013909 -3.33809,0.6383999 -4.51953,1.4472657 -1.18144,0.8088733 -3.76866,1.5675347 -5.75,1.6875 -2.39872,0.1452208 -3.79573,0.7996848 -4.17969,1.960937 -0.4038,1.221812 -1.62229,1.733121 -4.06836,1.707032 -2.07299,-0.02211 -3.24345,0.373086 -2.88281,0.970703 0.36057,0.597791 -0.81399,0.990919 -2.89258,0.96875 -1.92487,-0.02052 -3.74665,0.354741 -4.04883,0.832031 -0.76641,1.210967 -18.61566,0.293001 -19.90429,-1.023437 -0.57918,-0.59166 -1.52597,-1.074043 -2.10352,-1.072266 -0.57755,0.0023 -0.3798,0.448307 0.43945,0.990234 1.17343,0.776221 0.94138,0.98422 -1.09375,0.97461 -1.42083,-0.0068 -2.89829,0.295121 -3.2832,0.671875 -0.38487,0.376758 -1.58644,0.811301 -2.66992,0.964843 -1.08344,0.153544 -2.88421,1.173384 -4,2.265625 -1.11579,1.092235 -3.17856,1.972043 -4.58594,1.957032 -1.40738,-0.015 -2.305,0.394821 -1.99414,0.910156 0.86623,1.435634 -1.50706,2.428054 -2.75586,1.152344 -0.80859,-0.825832 -0.78312,-1.122676 0.0977,-1.113282 0.65994,0.007 1.20527,-0.420416 1.21094,-0.953125 0.008,-0.532709 -0.66774,-0.717912 -1.4961,-0.410156 -0.82828,0.307771 -1.51294,1.213147 -1.52148,2.011719 -0.008,0.851623 -0.52893,1.171521 -1.25782,0.771484 -0.68356,-0.375129 0.0942,0.520222 1.72852,1.992188 1.63438,1.471963 3.86669,3.121616 4.96094,3.666015 1.34574,0.669497 -0.75775,0.746333 -6.50196,0.236328 -10.43319,-0.926298 -12.36702,-0.853194 -12.82812,0.482422 -0.1988,0.57573 -0.76984,0.786954 -1.26953,0.470704 -0.49965,-0.316226 -0.91338,-0.07191 -0.91992,0.542968 -0.008,0.614906 -0.41865,0.862351 -0.91407,0.548828 -0.49545,-0.313523 -0.67794,0.31382 -0.4082,1.392578 0.36813,1.472402 -0.14192,2.111741 -2.04687,2.56836 -1.39578,0.334541 -3.31564,1.447112 -4.26563,2.474609 -0.94998,1.027488 -2.11234,1.624679 -2.58398,1.326172 -0.47161,-0.298469 -0.39735,0.704968 0.16406,2.230469 0.88275,2.398594 0.7051,3.006995 -1.30274,4.49414 -1.27702,0.945827 -3.98517,1.984991 -6.01757,2.308594 -2.3969,0.381642 -3.52992,1.033463 -3.22461,1.855469 0.2589,0.69702 -0.23047,1.836848 -1.08789,2.533203 -2.09541,1.701559 -2.01017,4.762848 0.14843,5.351563 1.31316,0.358148 1.18817,0.497161 -0.50586,0.566406 -1.26459,0.05167 -2.25873,0.739815 -2.26757,1.568359 -0.0113,1.121658 0.73988,1.331166 3.14453,0.876953 2.36984,-0.447465 2.96892,-0.289073 2.38672,0.63086 -0.5387,0.851233 -2.81449,1.072067 -7.41407,0.720703 -3.65,-0.278665 -5.85055,-0.304679 -4.89062,-0.05859 0.95996,0.246312 1.74013,1.036444 1.73242,1.757813 -0.0151,1.532885 -5.03105,5.03783 -6.6875,4.673828 -0.62343,-0.137008 -1.42936,0.49359 -1.78906,1.402343 -0.48382,1.221612 -0.31964,1.407698 0.62891,0.710938 0.83331,-0.612064 2.50709,-0.487815 4.77148,0.353516 l 3.48633,1.294922 -3.1543,0.02344 c -2.60833,0.0189 -3.34655,0.558438 -4.27344,3.128906 -0.9284,2.574509 -1.53951,3.020871 -3.57422,2.609375 -3.89563,-0.78785 -4.64347,4.487252 -0.78711,5.552735 1.14698,0.316875 0.96551,0.487277 -0.58984,0.550781 -3.08334,0.126009 -2.89155,2.892556 0.25781,3.71875 3.20965,0.842079 2.41048,1.64731 -2.89843,2.917969 -2.30525,0.551758 -3.96841,1.310929 -3.69727,1.689453 0.6223,0.869325 -3.97241,4.084957 -4.73047,3.310547 -0.30803,-0.314722 0.18818,-2.109614 1.10547,-3.990235 0.91714,-1.880613 1.67554,-4.039922 1.68359,-4.796875 0.0227,-2.204205 3.22706,-6.145123 3.98047,-4.896484 0.36322,0.601912 0.6766,-0.361322 0.70313,-2.140625 0.0302,-2.189696 1.90074,-6.123232 5.78515,-12.173828 3.15644,-4.916618 6.36688,-9.606974 7.13477,-10.423828 0.76789,-0.816862 3.16063,-4.119758 5.31836,-7.339844 4.06397,-6.064785 13.57359,-15.559368 22.05273,-22.015625 4.3558,-3.316615 4.98455,-3.533476 5.82032,-2.001953 1.26682,2.321376 2.8354,2.190577 2.86132,-0.240235 0.0151,-1.327665 1.42745,-2.668138 4.29297,-4.068359 2.34989,-1.148242 5.18056,-2.890102 6.29102,-3.871094 3.58367,-3.16562 14.51574,-5.998931 26.07422,-6.759765 12.8183,-0.8437697 24.71704,-3.8801513 39.10937,-9.97851595 11.43954,-4.84719215 14.99586,-6.19845705 21.54688,-6.23437505 z m -14.59961,7.8867188 c -0.50982,-0.00544 -1.59384,0.2795008 -2.97461,0.8554687 -1.32469,0.5525867 -1.49838,0.8613733 -0.50977,0.9082031 0.82462,0.039035 2.1791,-0.3584822 3.00977,-0.8828125 0.92024,-0.5808794 0.98443,-0.8754217 0.47461,-0.8808593 z m -29.64453,8.6933592 c -0.34696,-0.01799 -0.74298,0.04106 -1.10547,0.181641 -0.80107,0.310692 -0.5667,0.550906 0.59765,0.611328 1.05347,0.05466 1.64703,-0.1759 1.31836,-0.511719 -0.16441,-0.167894 -0.46328,-0.263241 -0.81054,-0.28125 z m 81.99609,13.25586 c -0.15836,0.0077 -0.3567,0.05615 -0.59961,0.146484 -0.8002,0.297316 -1.45959,0.94246 -1.46484,1.433594 -0.0151,1.437537 1.72388,1.045868 2.34765,-0.529297 0.28687,-0.723379 0.19113,-1.073822 -0.2832,-1.050781 z m -127.45898,1.478515 c -0.35793,-0.06411 -0.61446,0.154978 -0.61914,0.591797 -0.008,0.582426 0.44027,1.0664 0.99023,1.072266 0.54996,0.0059 1.0013,-0.189122 1.00391,-0.431641 0.003,-0.242525 -0.44195,-0.722583 -0.98828,-1.068359 -0.13682,-0.08644 -0.26737,-0.142692 -0.38672,-0.164063 z m 13.96484,3.150391 c 0.11943,0.02139 0.25035,0.07567 0.38672,0.162109 0.54641,0.345766 0.99085,0.825841 0.98828,1.068359 -0.003,0.24254 -0.45391,0.437507 -1.00391,0.431641 -0.54996,-0.0059 -0.99451,-0.48984 -0.98828,-1.072265 0.004,-0.436811 0.25919,-0.65395 0.61719,-0.589844 z m 114.30469,2.876953 c 0.58242,0.0062 1.05468,0.461749 1.04883,1.011719 -0.008,0.549964 -0.21045,0.996728 -0.45313,0.99414 -0.24265,-0.0026 -0.71299,-0.456177 -1.04687,-1.009765 -0.33374,-0.553594 -0.1313,-1.002305 0.45117,-0.996094 z m 9.6582,1.445312 c -0.35792,-0.06411 -0.61254,0.153025 -0.61719,0.589844 -0.008,0.582426 0.43833,1.0664 0.98828,1.072266 0.54996,0.0059 1.0013,-0.189122 1.00391,-0.431641 0.003,-0.242525 -0.44195,-0.722583 -0.98828,-1.068359 -0.13682,-0.08644 -0.26736,-0.140739 -0.38672,-0.16211 z m 10.87109,1.623047 c -0.52252,-0.0056 -1.11708,0.471431 -1.32031,1.060547 -0.20334,0.589117 0.38218,1.080067 1.29883,1.089844 0.91657,0.0098 1.50934,-0.46918 1.31836,-1.0625 -0.19049,-0.593317 -0.77443,-1.082319 -1.29688,-1.087891 z m -185.33984,15.556641 c -0.09,-0.0033 -0.20712,0.03496 -0.34961,0.121094 -0.54724,0.330217 -0.99839,1.023503 -1.00391,1.541015 -0.0151,1.438349 0.7035,1.129527 1.38672,-0.595703 0.26344,-0.664641 0.23741,-1.056704 -0.0332,-1.066406 z m 165.5918,7.384765 c 0.54996,0.006 0.99609,0.461749 0.99023,1.011719 -0.008,0.549963 -0.4598,0.994147 -1.00976,0.988281 -0.54996,-0.006 -0.99613,-0.459799 -0.99024,-1.009765 0.008,-0.549971 0.45981,-0.9961 1.00977,-0.990235 z m -173.91211,5.152344 c -0.76233,0.07782 -2.1466,2.170368 -2.14063,3.470703 0.002,0.55005 0.67129,0.139159 1.48438,-0.912109 0.8132,-1.051234 1.23753,-2.158538 0.9414,-2.460938 -0.0779,-0.07929 -0.17668,-0.108805 -0.28515,-0.09766 z m 176.18164,1.253906 h 0.002 c 0.27024,0.0098 0.29424,0.401743 0.0293,1.066407 -0.68323,1.725233 -1.40206,2.034047 -1.38672,0.595703 0.004,-0.517512 0.45667,-1.210832 1.00391,-1.541016 0.14248,-0.08606 0.26198,-0.124344 0.35156,-0.121094 z m 5.07617,13.673829 c 0.24265,0.0026 0.4375,0.453935 0.43164,1.003906 -0.008,0.54997 -0.48789,0.994495 -1.07031,0.988281 -0.58231,-0.006 -0.77533,-0.45756 -0.42969,-1.003906 0.34583,-0.546346 0.82579,-0.99087 1.06836,-0.988281 z m 7.36524,2.382812 c 1.22471,0.05235 2.11608,0.258508 2.16015,0.539063 0.62359,3.971455 0.53902,6.186026 -0.23828,6.177734 -0.51708,-0.0057 -0.94531,0.440268 -0.95117,0.990234 -0.008,0.549971 0.55732,1.00433 1.25,1.011719 2.27599,0.02419 3.45186,3.301976 2.10351,5.861328 -0.85236,1.617922 -1.38454,1.917844 -1.74609,0.982422 -0.29254,-0.756907 -0.56319,-0.374866 -0.62109,0.873047 -0.0703,1.518021 0.34461,2.050485 1.3164,1.689453 1.04546,-0.388452 1.6827,0.87928 2.41797,4.808597 0.54905,2.93418 1.68722,9.04857 2.5293,13.58789 0.84189,4.5393 1.36376,8.73652 1.16015,9.32617 -0.63174,1.83 -1.81404,-0.26048 -1.7832,-3.15234 0.0151,-1.51242 -0.43551,-2.91187 -1.00195,-3.10743 -0.5664,-0.19551 -1.15692,-3.80958 -1.31446,-8.0332 -0.32617,-8.74036 -0.85438,-10.13739 -3.52734,-9.32031 -1.59216,0.48671 -1.99854,-0.0749 -2.5039,-3.466799 -0.33185,-2.226977 -0.94361,-3.845397 -1.35743,-3.595703 -0.41382,0.249714 -0.98015,-1.003537 -1.25976,-2.783203 -0.27969,-1.779662 -0.81129,-4.025679 -1.18164,-4.992187 -0.47244,-1.232886 -0.19377,-1.752258 0.93359,-1.740235 0.88381,0.0094 1.6143,0.80497 1.61914,1.767578 0.008,1.604625 0.10251,1.596814 1.10938,-0.09375 0.84718,-1.42261 0.72618,-2.223666 -0.5293,-3.505859 -1.33712,-1.365577 -1.77933,-1.421866 -2.48047,-0.314453 -0.59444,0.93897 -1.05711,1.010455 -1.52539,0.234375 -0.36964,-0.612696 -0.14706,-1.1084 0.49414,-1.101563 0.64124,0.0068 0.95734,-0.551936 0.70313,-1.242187 -0.30615,-0.831481 0.67544,-1.303719 2.9082,-1.398438 0.46337,-0.01965 0.90818,-0.0194 1.31641,-0.002 z m -33.47071,7.626953 c 0.15723,0.02797 0.49778,0.34945 1.03516,0.898438 0.86332,0.881828 1.40566,2.37758 1.20508,3.322265 -0.25059,1.182463 -0.74075,0.682702 -1.57032,-1.603515 -0.68764,-1.895241 -0.93241,-2.664371 -0.66992,-2.617188 z m -177.125,12.195313 c 0.30841,-0.05756 0.4218,0.192631 0.41602,0.736331 -0.008,0.77789 -0.92205,1.96739 -2.0293,2.64257 -1.10729,0.6752 -2.00893,0.84241 -2.00391,0.37305 0.004,-0.4694 0.91869,-1.65691 2.0293,-2.64062 0.77613,-0.68751 1.27944,-1.05374 1.58789,-1.111331 z m 184.28711,0.09375 2.54102,2.83203 c 1.39888,1.55817 2.53485,3.70807 2.52343,4.77734 -0.0113,1.06927 -0.46957,1.93946 -1.01953,1.9336 -0.54999,-0.006 -0.99464,-0.64861 -0.98632,-1.42774 0.008,-0.77912 -0.39889,-1.571 -0.90626,-1.75976 -0.50736,-0.18875 -1.20064,-1.69591 -1.53906,-3.34961 z m -0.16797,7.69336 c 0.40358,-0.0336 0.97747,0.18878 1.62305,0.73633 0.78826,0.66847 1.71729,3.02511 2.06641,5.23437 0.34922,2.20925 0.46232,4.18445 0.25195,4.39063 -0.34545,0.33811 -3.15523,-5.34051 -3.24024,-6.54883 -0.0189,-0.27523 -0.40404,-1.09723 -0.85546,-1.82617 -0.72016,-1.1629 -0.51827,-1.93054 0.15429,-1.98633 z m -146.89453,4.27929 c 1.36483,0.0621 3.3106,0.62083 4.49805,1.53907 1.05906,0.81884 1.56255,1.4852 1.11914,1.48047 -0.44334,-0.005 -0.0815,1.12523 0.80469,2.50976 2.1976,3.43332 1.28222,3.16069 -1.74805,-0.51953 -1.37068,-1.66472 -3.17198,-3.03414 -4,-3.04297 -0.82798,-0.009 -1.77741,-0.46984 -2.11133,-1.02344 -0.35225,-0.58328 0.0889,-0.88304 0.89258,-0.93945 0.16743,-0.0117 0.3499,-0.0126 0.54492,-0.004 z m -16.24609,1.23047 c 0.98948,0.0948 3.07509,0.74073 6.41211,1.77735 2.85664,0.88736 3.50438,1.52603 3.08984,3.04492 -0.31257,1.14607 0.18141,2.44892 1.22656,3.23047 1.93531,1.44715 1.6958,3.59354 -0.32031,2.87109 -0.70114,-0.25122 -3.8219,-2.96566 -6.93555,-6.0332 -3.7265,-3.67132 -5.12174,-5.0486 -3.47265,-4.89063 z m -34.12696,0.66993 c 0.97902,-0.12915 0.37373,1.92629 -1.69726,4.08398 -1.15506,1.20353 -2.24966,3.24625 -2.43164,4.53906 -0.18142,1.29283 -0.66336,3.13555 -1.07227,4.09375 -1.21387,2.8443 1.23026,2.05433 4.48828,-1.45117 2.29047,-2.46451 2.99357,-2.80905 3.00196,-1.46875 0.004,0.9626 0.51021,1.7552 1.12109,1.76172 0.61089,0.006 0.04,0.85847 -1.26953,1.89453 -4.52727,3.58176 -5.40607,14.67155 -1.37305,17.33398 0.68474,0.45199 0.96716,2.23617 0.68555,4.32422 -0.64755,4.80114 -0.15926,5.28562 4.52539,4.48047 2.78476,-0.4786 4.02601,-0.33912 4.01758,0.45117 -0.008,0.62886 0.92116,1.95851 2.0625,2.95704 1.8768,1.64196 2.00153,2.47477 1.30859,8.70507 -0.54576,4.90735 -0.38817,7.76513 0.54492,9.93555 1.32669,3.08577 3.53615,4.41133 2.44141,1.46484 -0.39579,-1.06525 0.0739,-1.76435 1.40625,-2.09765 1.4245,-0.3563 1.87359,-1.11807 1.5625,-2.64258 -0.85984,-4.21652 -0.78179,-6.20174 0.4043,-10.13086 2.0615,-6.83026 6.00084,-15.45028 6.72265,-14.71289 0.37905,0.38719 0.9517,-0.25367 1.27149,-1.42578 1.06889,-3.91629 3.14877,-3.19156 8.99218,3.13476 3.17367,3.436 7.21896,7.50335 8.99024,9.03907 1.7712,1.53572 3.21514,3.26556 3.20898,3.84375 -0.008,0.57819 0.38521,0.81152 0.86914,0.51953 0.48394,-0.29201 2.07139,0.59818 3.5293,1.97851 1.45784,1.38032 3.078,2.51592 3.59961,2.52149 0.52161,0.006 0.9424,0.68481 0.93359,1.50976 -0.008,0.82496 0.64734,1.50697 1.45899,1.51563 1.92726,0.0204 7.64566,3.58866 6.9082,4.31055 -0.31294,0.30636 0.0275,0.51552 0.75,0.46484 1.22789,-0.0858 15.18805,6.49667 25.88672,12.20703 2.57004,1.37176 6.36708,3.10214 8.4375,3.84375 l 3.76367,1.34766 -2.49023,1.27539 c -1.37035,0.70139 -4.14721,2.54285 -6.16797,4.09179 -4.15604,3.18567 -4.89249,3.39645 -4.87109,1.39258 0.0189,-1.93045 -5.63759,-6.64859 -8.00391,-6.67383 -1.05778,-0.0113 -1.92969,0.42855 -1.93555,0.97852 -0.008,0.54997 0.80454,1.00891 1.80078,1.01953 2.37718,0.0253 6.14897,3.66777 6.125,5.91406 -0.0113,0.97338 -1.51602,4.20054 -3.34765,7.17383 -6.91877,11.23086 -7.81834,13.5261 -7.87696,20.08789 -0.0465,5.40819 -0.47639,10.68768 -1.04687,12.89453 -0.25928,1.00269 -4.17423,1.72797 -4.16406,0.77149 0.004,-0.47409 -1.85523,-0.22752 -4.13282,0.54883 -2.2775,0.77635 -4.67158,1.40733 -5.32226,1.40039 -1.98138,-0.0212 -4.39437,-2.39441 -5.46485,-5.375 -1.28715,-3.58413 -1.21334,-14.69563 0.0977,-14.68164 0.5427,0.006 3.29014,-2.23316 6.10547,-4.97461 4.93788,-4.8083 9.08974,-12.03509 9.13086,-15.89063 0.0113,-1.02188 0.47376,-2.12884 1.02734,-2.46289 1.39661,-0.84279 1.26636,-6.65978 -0.1914,-8.55078 -3.77549,-4.89763 -9.40316,-6.26627 -14.72852,-3.58398 -2.67764,1.34864 -2.96629,1.34091 -2.95117,-0.0781 0.008,-0.86465 -1.3255,-2.35411 -2.9668,-3.30859 -1.64137,-0.95448 -3.20747,-2.45233 -3.48047,-3.32813 -0.27288,-0.87582 -2.08717,-2.09931 -4.03125,-2.71875 -3.46911,-1.10529 -3.6605,-1.01357 -10.28711,4.88281 -3.71368,3.30446 -8.56148,6.76451 -10.77148,7.68946 -4.87041,2.03841 -13.53435,3.19532 -13.51953,1.80469 0.008,-0.53945 0.46168,-0.97657 1.01172,-0.97071 1.64583,0.0174 1.18131,-4.33135 -0.94532,-8.85547 -1.09651,-2.33295 -1.67706,-4.74242 -1.28906,-5.35547 0.4218,-0.66646 0.25175,-0.84376 -0.42187,-0.4375 -0.68289,0.41207 -2.10643,-1.21182 -3.61914,-4.13085 -2.60236,-5.02156 -8.34143,-13.79598 -10.73047,-16.4043 -2.46437,-2.69061 -7.54009,-12.19506 -6.98242,-13.07617 0.29745,-0.47016 0.1324,-1.11432 -0.36914,-1.43164 -0.52816,-0.33427 -0.0729,-4.22585 1.08203,-9.25196 1.92752,-8.39045 4.75049,-13.86833 9.16797,-17.78125 0.68349,-0.60543 1.18539,-0.8925 1.51171,-0.93554 z m 220.04883,0.69531 h 0.002 c 0.88123,0.10632 2.6297,1.71446 3.57617,3.86328 1.47998,3.3597 1.48034,3.92667 0.004,6.70703 -1.12089,2.11205 -1.26896,3.15495 -0.48437,3.42578 0.62045,0.21419 1.12454,0.80055 1.11914,1.30469 -0.004,0.50414 -0.42052,0.91355 -0.92188,0.9082 -1.23533,-0.0132 -4.90043,-11.97255 -3.86132,-12.59961 0.45346,-0.27367 0.57658,-1.162 0.27539,-1.97265 -0.45487,-1.22422 -0.23774,-1.70053 0.29101,-1.63672 z m -99.08984,3.35351 c 1.37968,0.0302 7.37133,5.25102 7.35742,6.55664 -0.008,0.66812 0.92316,1.72873 2.06836,2.35743 1.33633,0.73354 1.903,1.8027 1.58008,2.98632 -0.54029,1.97946 1.6942,5.99997 3.3457,6.01758 0.55128,0.006 0.73037,-0.4425 0.39649,-0.99609 -0.33411,-0.55361 -0.0829,-1.00098 0.55859,-0.99414 0.63972,0.007 0.91155,0.64765 0.60352,1.42578 -0.30804,0.77814 0.41428,2.51533 1.60351,3.85937 1.18923,1.34405 3.53697,3.99188 5.21875,5.88477 1.68185,1.89287 4.73645,4.97804 6.78711,6.85547 2.80637,2.56925 3.3962,3.61433 2.38477,4.22461 -1.00453,0.60614 -0.72185,1.06596 1.12109,1.82422 l 2.4668,1.01562 -2.75196,0.0332 c -1.51279,0.0185 -2.74414,-0.41487 -2.73828,-0.96484 0.008,-0.54998 -0.71389,-1.00815 -1.59765,-1.01758 -1.01624,-0.011 -1.40106,0.53655 -1.04688,1.49024 0.33033,0.88871 -0.003,1.49887 -0.81445,1.49023 -0.85501,-0.009 -1.18074,-0.72797 -0.86133,-1.89844 0.62037,-2.27301 -1.24765,-3.6983 -2.99024,-2.2832 -0.90357,0.73377 -2.56577,0.14652 -5.93359,-2.0957 -2.57337,-1.71329 -4.67487,-3.4954 -4.66992,-3.96094 0.004,-0.46553 -0.87372,-1.33212 -1.95508,-1.92578 -1.5216,-0.83533 -1.85834,-0.7827 -1.48047,0.23437 0.29745,0.80032 -0.25793,1.30539 -1.42187,1.29297 -1.14633,-0.0121 -1.70844,-0.53079 -1.4043,-1.29883 0.27893,-0.7042 -0.0549,-1.28565 -0.74023,-1.29296 -0.90913,-0.01 -1.06895,-1.37852 -0.59375,-5.05469 0.45615,-3.52883 0.11507,-6.82743 -1.13868,-11.01172 -1.2226,-4.08124 -1.42497,-5.97433 -0.64257,-5.97656 0.72918,-0.002 0.7842,-0.2735 0.15234,-0.74805 -1.44934,-1.08877 -3.66616,-5.38532 -3.07617,-5.96289 0.0476,-0.0468 0.12105,-0.0684 0.21289,-0.0664 z m 102.46289,2.85547 c -0.58243,-0.006 -1.0625,0.44026 -1.06836,0.99024 -0.008,0.54996 0.18532,1.00132 0.42773,1.0039 0.24265,0.003 0.72663,-0.44194 1.07227,-0.98828 0.34545,-0.54635 0.15063,-0.99965 -0.43164,-1.00586 z m -211.28516,2.90625 c 0.49276,-0.011 1.0149,-0.007 1.55078,0.0117 0.71445,0.0257 1.45317,0.0775 2.17774,0.16016 4.41759,0.50361 5.96467,1.27024 9.56055,4.73047 4.64046,4.46533 4.16572,5.59066 -0.65821,1.5625 -1.99695,-1.66749 -5.32164,-2.89238 -10.23242,-3.77149 -5.4034,-0.96731 -6.84372,-1.53714 -5.60547,-2.21289 0.51568,-0.28139 1.72877,-0.44735 3.20703,-0.48047 z m 199.15235,3.96485 c 0.54999,0.006 0.99609,0.46174 0.99023,1.01171 -0.008,0.54998 -0.46176,0.99415 -1.01172,0.98829 -0.54996,-0.006 -0.99414,-0.4598 -0.98828,-1.00977 0.008,-0.54998 0.45981,-0.9961 1.00977,-0.99023 z m 26.45898,0.74414 c 0.0601,0.0234 0.12571,0.11844 0.19336,0.29101 0.26986,0.69042 0.25921,1.8155 -0.0254,2.5 -0.2846,0.68451 -0.50685,0.11905 -0.49219,-1.25586 0.0113,-1.03119 0.14432,-1.60445 0.32422,-1.53515 z m -4.07422,3.29101 h 0.002 c 0.0779,-0.0411 0.16634,0.10878 0.25781,0.47461 h 0.002 c 0.24227,0.97562 0.21359,2.32594 -0.0684,3 -0.28119,0.67407 -0.48182,-0.12375 -0.44531,-1.77344 0.0227,-1.03108 0.12194,-1.63279 0.25195,-1.70117 z m -228.44726,0.76758 c 0.54996,0.006 0.99575,0.43366 0.99023,0.95117 -0.004,0.51751 -0.46399,1.21477 -1.01758,1.54883 -0.55362,0.334 -0.99938,-0.0938 -0.99023,-0.95117 0.008,-0.85741 0.46758,-1.5547 1.01758,-1.54883 z m 2.08984,8.01953 c 0.1217,0.0261 0.23572,0.0852 0.33398,0.18555 0.20637,0.21075 0.002,0.97575 -0.45898,1.70117 -0.54051,0.85404 -1.05876,0.95163 -1.4668,0.27539 -0.5249,-0.86996 0.74061,-2.34475 1.5918,-2.16211 z m 31.05859,1.35156 c 0.41129,-0.005 2.92134,1.58951 5.58008,3.54297 5.5739,4.09527 5.7884,4.15537 6.42578,1.81836 0.3583,-1.31316 0.49912,-1.18815 0.56836,0.50586 0.0507,1.23811 0.53278,2.25596 1.07227,2.26172 0.53953,0.006 1.22366,1.02684 1.52148,2.26758 0.57895,2.41177 5.04928,5.2085 5.97852,3.74023 0.30614,-0.48347 0.0811,-1.79447 -0.50195,-2.91211 -0.58303,-1.11765 -0.67712,-2.02647 -0.20899,-2.02148 0.46817,0.005 2.10483,2.70682 3.63867,6.00586 2.64359,5.68629 7.5239,10.85107 13.08789,13.85351 2.50534,1.35195 3.61616,0.50951 2.24805,-1.70507 -0.49674,-0.80409 -0.89989,-2.30412 -0.89648,-3.33399 0.004,-1.54529 0.26067,-1.65396 1.47851,-0.62109 0.81154,0.68836 1.31803,1.53664 1.12305,1.88476 -0.19502,0.3481 0.8804,1.82741 2.39062,3.28907 2.71325,2.62595 2.7527,2.63151 3.36914,0.53515 0.56984,-1.93793 0.72751,-1.97565 1.83789,-0.43359 0.6686,0.9285 1.96796,3.08017 2.88672,4.78125 1.72823,3.19951 4.75363,4.24531 4.78125,1.65234 0.0113,-1.12368 0.78684,-1.32175 3.25782,-0.82617 3.33876,0.66964 6.84646,2.20762 7.71484,3.37891 1.24532,1.67982 11.09802,6.64919 17.4082,8.78125 5.54684,1.87416 6.35958,2.38447 3.97266,2.48828 l -3.00195,0.1289 2.98632,1.40625 c 1.64187,0.77309 4.238,1.43724 5.76954,1.47852 1.53146,0.0413 3.84511,0.78554 5.14062,1.6543 1.29551,0.86874 2.60931,1.17728 2.92188,0.68359 0.6356,-1.00438 -2.10046,-2.5283 -7.33008,-4.08008 -3.37032,-1.00005 -3.31887,-1.0245 1.50781,-0.71093 3.00707,0.19536 6.9768,1.39063 9.96875,3 2.73445,1.47087 5.671,2.68227 6.52344,2.69335 0.85243,0.011 1.97281,0.41603 2.49023,0.89649 0.51742,0.48046 4.30027,2.20082 8.40821,3.82422 4.10789,1.62338 9.33723,3.96234 11.62109,5.19531 4.98554,2.69151 11.27666,4.61462 11.28906,3.45313 0.004,-0.45982 -0.55182,-1.06687 -1.23633,-1.35157 -0.95724,-0.39816 -0.94267,-0.53402 0.0645,-0.58398 0.72378,-0.0359 0.99883,-0.58366 0.61328,-1.22266 -1.24604,-2.06506 7.85708,3.64568 10.78515,6.76563 1.56431,1.66678 4.87349,5.20815 7.35547,7.86914 h 0.002 c 3.73814,4.00764 4.35106,5.19146 3.56836,6.89648 -0.85656,1.86584 -1.0695,1.90606 -2.26368,0.43555 -0.72453,-0.89224 -1.93262,-1.62869 -2.68554,-1.63672 -0.75296,-0.008 -1.92249,-0.92008 -2.59766,-2.02734 -0.67517,-1.10727 -1.74508,-2.01864 -2.37891,-2.02539 -0.63382,-0.007 -1.41556,-0.71871 -1.73632,-1.58204 -0.32089,-0.86333 -0.98761,-1.32587 -1.48243,-1.02734 -0.49474,0.29855 -1.40004,-0.0729 -2.01172,-0.82617 -0.61164,-0.75322 -5.16061,-3.11831 -10.10937,-5.25586 -6.02105,-2.60073 -8.56465,-4.15592 -7.6875,-4.69922 0.9871,-0.61145 0.89164,-0.82071 -0.38867,-0.8457 -0.93502,-0.0178 -2.15087,-0.82454 -2.70117,-1.79297 -0.55034,-0.96843 -1.01822,-1.47638 -1.03711,-1.12695 -0.0525,0.90089 -14.26592,-3.10182 -14.93164,-4.20508 -0.48401,-0.80221 -3.75465,-1.70431 -9.25,-2.55078 -0.94507,-0.14559 -2.02773,-0.58015 -2.40625,-0.9668 -0.37849,-0.38665 -1.59445,-0.71281 -2.70118,-0.72461 -1.10675,-0.0117 -3.38897,-0.4734 -5.07226,-1.02344 -1.68333,-0.55004 -5.75255,-1.75013 -9.04297,-2.66797 -13.46234,-3.75523 -45.20617,-17.56952 -46.12305,-20.07226 -0.17801,-0.48632 -1.13978,-0.89169 -2.13867,-0.90235 -1.66057,-0.0178 -7.2039,-3.28012 -17.55859,-10.33203 -4.25583,-2.89839 -23.11044,-21.06129 -21.87696,-21.07422 z m 198.65235,0 h 0.002 c 0.19283,-0.0173 0.43011,0.0923 0.69531,0.36329 0.32013,0.32708 0.40615,1.41658 0.19336,2.41992 -0.36888,1.73646 -0.42243,1.73139 -1.11132,-0.0781 -0.55027,-1.44518 -0.35724,-2.64887 0.2207,-2.70508 z m -228.38281,3.66602 c 0.24264,0.003 0.43554,0.45589 0.42968,1.00586 -0.008,0.54996 -0.48593,0.99449 -1.06836,0.98828 -0.58231,-0.006 -0.77727,-0.45757 -0.43164,-1.00391 0.34545,-0.54635 0.82775,-0.99282 1.07032,-0.99023 z m 113.95703,3.65039 c 0.32882,-0.0125 0.61664,0.0693 0.81836,0.27539 0.34356,0.35101 0.61428,1.46437 0.60351,2.47266 -0.0189,1.82122 1.42227,2.53409 2.24024,1.10742 0.23697,-0.40998 0.32501,-0.28293 0.19726,0.2832 -0.12775,0.56615 1.05142,2.33985 2.6211,3.94336 1.56967,1.60352 2.64774,3.1191 2.39648,3.36524 -0.25134,0.24612 -1.14881,-0.25955 -1.99414,-1.12305 -0.84525,-0.86351 -2.43044,-1.86483 -3.52344,-2.22461 -1.09296,-0.35977 -1.982,-1.07304 -1.97656,-1.58594 0.004,-0.5129 -0.77763,-0.92786 -1.74023,-0.92187 -1.28459,0.008 -0.82895,0.80119 1.71679,2.98828 1.90764,1.63889 5.02781,4.4655 6.9336,6.28125 1.90571,1.81574 4.06508,3.17555 4.79687,3.01953 0.73183,-0.15602 1.5527,0.6054 1.82422,1.69141 0.27137,1.08601 1.23635,2.24311 2.14453,2.57226 0.90822,0.32916 2.99236,1.48462 4.63086,2.56836 3.70813,2.45266 5.14446,2.65552 3.375,0.47656 -1.20163,-1.47967 -1.09416,-1.57412 0.99414,-0.88671 3.3645,1.10747 6.00521,3.6794 5.38477,5.24609 -0.29367,0.74103 -0.0125,1.35447 0.63086,1.36133 0.64131,0.007 0.89443,-0.44055 0.56054,-0.99414 -1.06794,-1.76986 1.12494,-1.06278 3.58594,1.1582 2.3667,2.13581 2.36668,2.14539 0.13672,1.43555 -3.10443,-0.98832 -2.82735,0.59762 0.4707,2.6914 5.06888,3.21807 -0.70655,1.99212 -8.23242,-1.74804 -3.82987,-1.90339 -8.98145,-4.02647 -11.44922,-4.7168 -4.80937,-1.34534 -6.10527,-1.8203 -12.77734,-4.68945 -3.32085,-1.42804 -4.48407,-1.57179 -5.08203,-0.62696 -0.60923,0.96257 -0.99051,0.94574 -1.78516,-0.082 -1.19066,-1.5397 -1.26819,-4.81115 -0.11328,-4.79883 0.44103,0.005 0.57026,-0.61011 0.28906,-1.36718 -1.27113,-3.4211 2.94061,-2.12328 9.66016,2.98046 3.95777,3.00606 7.60504,5.2215 8.10156,4.92188 1.16043,-0.70018 -2.46654,-4.65338 -5.9668,-6.50391 -1.48698,-0.78614 -5.5025,-3.64487 -8.92187,-6.35351 -5.12364,-4.05862 -6.47991,-4.71062 -7.71094,-3.71094 -0.82152,0.66717 -1.51796,0.8181 -1.54687,0.33789 -0.0302,-0.48018 -0.4981,0.20202 -1.03907,1.51367 -1.06734,2.58792 -0.33992,4.33626 0.95313,2.29297 0.6048,-0.9556 1.36574,-0.74917 3.18555,0.86524 2.37675,2.10827 2.3776,2.11666 0.14843,1.47656 -2.49747,-0.71722 -3.09802,0.91283 -0.81836,2.2207 0.99493,0.57082 1.14892,1.29121 0.49805,2.30664 -0.80527,1.25618 -1.79539,1.01999 -6.66406,-1.58594 -6.64592,-3.55717 -14.95888,-13.4134 -13.47266,-15.97265 0.75069,-1.29275 1.30893,-1.23808 4.33984,0.42187 2.62217,1.43611 2.9879,1.91387 1.48047,1.94141 -2.04223,0.0374 -2.08111,-0.007 6.25782,7.20117 0.88176,0.76218 1.65655,0.81158 2.33203,0.15039 0.67544,-0.66117 0.30023,-1.5009 -1.12696,-2.52344 -1.54427,-1.10641 -1.77,-1.67385 -0.8125,-2.04687 1.05483,-0.41095 1.02221,-0.73699 -0.1621,-1.59375 -1.55566,-1.12525 -1.5625,-1.12259 3.26562,-1.45703 0.68806,-0.0477 1.51433,-0.43753 1.83789,-0.86524 0.74718,-0.98767 3.91783,0.22621 3.9043,1.49414 -0.004,0.5236 0.42372,0.68856 0.95312,0.36915 0.52944,-0.31945 0.72883,-1.21023 0.44336,-1.97852 -0.4433,-1.19321 1.77775,-3.02009 3.20313,-3.07422 z m -116.61719,0.32227 c 0.58242,0.006 1.05469,0.46174 1.04883,1.01171 -0.008,0.54997 -0.21044,0.99673 -0.45313,0.99415 -0.24264,-0.003 -0.71299,-0.45618 -1.04687,-1.00977 -0.33373,-0.5536 -0.13129,-1.00231 0.45117,-0.99609 z m 133.0625,0.41992 c -0.55,-0.006 -1.00843,0.68946 -1.01758,1.54687 -0.008,0.85744 0.43665,1.28717 0.99024,0.95313 0.55358,-0.33404 1.0101,-1.03327 1.01562,-1.55078 0.004,-0.51751 -0.43832,-0.94336 -0.98828,-0.94922 z m 92.57812,1.76562 h 0.002 c 0.23319,-0.006 0.521,0.18113 0.90039,0.53907 0.70242,0.6626 1.06866,1.54135 0.81445,1.95117 -0.25436,0.4098 0.0464,0.74922 0.66797,0.75586 0.62173,0.007 1.03913,1.0234 0.92578,2.25976 -0.11376,1.23636 -0.16506,3.59935 -0.11328,5.25 0.0707,2.26364 0.32763,2.64105 1.04102,1.53907 0.52025,-0.80349 1.23218,-1.16799 1.58398,-0.8086 0.35187,0.3594 0.78283,8.33908 0.95703,17.73242 0.17424,9.39337 0.15218,17.07834 -0.0508,17.07618 -1.18193,-0.0125 -3.71497,-4.33021 -3.12695,-5.33008 0.38668,-0.65774 0.33327,-0.86905 -0.11914,-0.46875 -1.2477,1.10569 -5.10812,-4.75381 -10.02539,-15.22071 -3.51561,-7.48335 -4.14639,-9.60004 -3.06446,-10.26953 1.28693,-0.79639 1.16208,-0.9479 -1.04883,-1.27343 -1.60081,-0.23573 -2.32112,-1.48031 -4.20703,-7.26954 -1.97677,-6.06821 -1.75531,-7.59807 0.73438,-5.05468 0.8578,0.8763 2.18055,1.36255 2.93555,1.08203 0.75507,-0.28052 2.04362,0.47485 2.86718,1.67773 l 1.5,2.1875 0.42578,-2.34961 c 0.40071,-2.19941 0.47882,-2.15639 1.21485,0.66016 1.15502,4.41984 2.44346,5.80231 4.1289,4.43359 1.51537,-1.23057 1.92967,-4.86816 0.55664,-4.88281 -0.47365,-0.005 -0.63806,-1.1075 -0.36718,-2.44727 0.24378,-1.20616 0.47823,-1.758 0.86718,-1.76953 z m -89.48242,0.26758 c -0.54999,-0.006 -1.28327,0.43607 -1.6289,0.98242 -0.34545,0.54635 -0.17688,0.99804 0.37304,1.00391 0.54996,0.006 1.28132,-0.43608 1.62696,-0.98242 0.34582,-0.54636 0.17882,-0.99804 -0.3711,-1.00391 z m -9.35937,0.41992 c 0.18217,-0.0178 0.49643,0.0403 0.9375,0.1543 1.20861,0.31257 2.893,1.65183 3.74218,2.97852 1.99397,3.1151 1.65009,3.03594 -2.50781,-0.57227 -2.06581,-1.79271 -2.71869,-2.50745 -2.17187,-2.56055 z m 17.28906,0.66407 c -0.51749,-0.006 -1.22276,0.43606 -1.56836,0.98242 -0.34545,0.54633 0.0723,1.00062 0.92969,1.00976 0.85742,0.009 1.5625,-0.43246 1.56836,-0.98242 0.008,-0.54997 -0.41212,-1.00425 -0.92969,-1.00976 z m -44.45898,0.86718 c 0.11905,0.0212 0.25031,0.0757 0.38671,0.16211 0.54634,0.34575 0.99089,0.8278 0.98829,1.07031 -0.003,0.24254 -0.45395,0.43556 -1.00391,0.42969 -0.54996,-0.006 -0.99448,-0.48788 -0.98828,-1.07031 0.004,-0.43682 0.25953,-0.65591 0.61719,-0.5918 z m 131.66601,0.44336 c 0.41201,-0.0102 0.71624,0.83495 0.70313,2.06641 -0.034,3.06388 -0.60475,3.30593 -1.29493,0.54687 -0.2759,-1.10247 -0.0914,-2.25202 0.41016,-2.55468 0.0627,-0.0378 0.12268,-0.0571 0.18164,-0.0586 z m -16.28125,0.44532 c -0.55003,-0.006 -1.00391,0.44025 -1.00976,0.99023 -0.008,0.54997 0.43828,1.0039 0.98828,1.00977 0.54996,0.006 1.00586,-0.43832 1.01172,-0.98829 0.008,-0.54997 -0.44028,-1.00585 -0.99024,-1.01171 z m -151.75781,4.77148 c 0.29858,-0.0181 0.6892,0.0596 1.16992,0.25 1.56669,0.62047 4.47603,4.78864 4.45899,6.38672 -0.0189,1.89975 -1.80763,1.0465 -4.39649,-2.09766 -2.10928,-2.56158 -2.52544,-4.46105 -1.23242,-4.53906 z m 53.32617,9.23047 c -0.47792,-0.005 -0.61665,0.31032 -0.23242,0.94726 0.33373,0.55359 1.36677,1.00621 2.29687,1.00782 1.45716,0.002 1.48685,-0.13131 0.20313,-0.98047 -0.9724,-0.64322 -1.78958,-0.96951 -2.26758,-0.97461 z m 4.49805,6.99805 c 2.2766,0.0242 4.69252,1.13658 4.68164,2.15624 -0.0151,1.45849 -3.66346,0.97609 -4.99219,-0.66015 -1.00173,-1.23368 -0.94524,-1.50949 0.31055,-1.49609 z m 45.57422,1.48632 c 0.54996,0.006 1.27353,0.46397 1.60742,1.01758 0.33411,0.55358 0.15539,1.00196 -0.39453,0.9961 -0.55,-0.006 -1.27155,-0.464 -1.60547,-1.01758 -0.33373,-0.55361 -0.15735,-1.00196 0.39258,-0.9961 z m -126.86329,2.64258 c 2.05112,-0.0545 3.5578,1.90189 4.35547,5.83594 0.6053,2.9853 0.25954,3.66362 -3.71093,7.25195 -2.40889,2.17705 -6.26981,5.38038 -8.58008,7.1211 -2.31035,1.7407 -4.95301,4.39759 -5.8711,5.90039 -0.91801,1.50278 -2.07448,2.72792 -2.56836,2.72265 -0.49387,-0.005 -2.03229,1.10264 -3.42187,2.46289 -1.38958,1.36026 -3.05176,2.46776 -3.69141,2.46094 -0.63968,-0.007 -2.89149,-1.77956 -5.0039,-3.9375 -4.24109,-4.33252 -4.79302,-7.35546 -2.22656,-12.19141 1.21262,-2.28487 2.23771,-2.92595 4.63476,-2.90039 4.37495,0.0467 16.44211,-6.42763 20.38477,-10.93554 2.17852,-2.49084 4.10391,-3.74861 5.69921,-3.79102 z m 96.51172,1.18555 c 1.00642,0.0731 3.66268,1.40683 10.375,4.95898 5.19598,2.74969 8.99712,4.98363 8.44727,4.9668 -3.32685,-0.10088 -19.40683,-7.83804 -19.39844,-9.33399 0.002,-0.39691 0.11893,-0.62503 0.57617,-0.59179 z m -16.99218,0.11914 c 0.0775,-0.0147 0.17542,-0.013 0.29296,0.006 0.15686,0.0249 0.34677,0.0802 0.56836,0.16797 0.85002,0.3366 1.54528,0.78972 1.54297,1.00586 -0.008,0.80987 -1.90927,0.33338 -2.48633,-0.62305 -0.19351,-0.32092 -0.15078,-0.51069 0.082,-0.55469 z m 104.68554,0.24219 c -0.63167,-0.0562 -0.93989,0.12939 -0.71289,0.50586 0.30274,0.50196 1.19771,0.92123 1.99024,0.92968 2.06963,0.0219 1.78146,-0.6614 -0.54688,-1.29687 -0.27439,-0.075 -0.51991,-0.11997 -0.73047,-0.13867 z m -50.39453,0.88476 c 0.55,0.006 1.27159,0.46397 1.60547,1.01758 0.33373,0.55359 0.15738,1.00196 -0.39258,0.99609 -0.54996,-0.006 -1.27354,-0.46398 -1.60742,-1.01757 -0.33373,-0.55361 -0.15539,-1.00196 0.39453,-0.9961 z m -15.94531,0.25781 c 1.08091,0.0117 1.62371,0.54285 1.32422,1.29883 -0.27893,0.7042 -0.62843,1.28089 -0.77735,1.2793 -0.14891,-0.002 -0.74493,-0.58743 -1.32421,-1.30078 -0.79299,-0.97653 -0.60109,-1.29205 0.77734,-1.27735 z m 71.66602,0.67774 c -0.35793,-0.0641 -0.61251,0.15497 -0.61719,0.5918 -0.008,0.58242 0.43824,1.06444 0.98828,1.07031 0.54996,0.006 1.00325,-0.18719 1.00586,-0.42969 0.003,-0.24253 -0.44391,-0.72453 -0.99024,-1.07031 -0.13682,-0.0865 -0.26732,-0.14076 -0.38671,-0.16211 z m -0.74219,2.52734 c -0.54403,0.0506 -0.65894,1.31281 -0.16016,3.16407 l 0.66406,2.46484 0.375,-2.33203 c 0.20674,-1.2826 0.11675,-2.59709 -0.19921,-2.91992 -0.26949,-0.27527 -0.49835,-0.39384 -0.67969,-0.37696 z m -168.17578,2.33008 c 1.04364,0.011 2.94842,1.16408 4.23437,2.5625 l 2.33789,2.54102 -2.27929,4.56836 c -1.25379,2.51212 -4.12595,6.18551 -6.38282,8.16406 -5.06653,4.44175 -9.32083,12.08213 -10.04687,18.03711 -0.45045,3.69455 -0.94579,4.54541 -2.77149,4.78515 -1.2215,0.16041 -3.569,1.95663 -5.21679,3.99219 -1.64784,2.03556 -5.52933,4.94862 -8.62696,6.47461 -8.91832,4.39339 -10.87868,8.40614 -8.77148,17.95703 0.67854,3.07558 0.54619,4.35399 -0.58203,5.57422 -0.80497,0.87063 -1.48256,2.22246 -1.50977,3.00391 -0.0265,0.78144 -1.17434,3.2091 -2.55273,5.39453 -3.10405,4.92159 -3.26555,9.38903 -0.45313,12.5918 1.79105,2.03962 2.00536,2.10668 1.34375,0.41796 -2.64087,-6.74044 -0.37502,-12.56537 6.70313,-17.22461 3.41816,-2.25002 6.98938,-5.46189 12.08789,-10.87304 2.12602,-2.25633 2.5519,-3.71625 2.70312,-9.28321 0.099,-3.63374 0.50175,-7.11844 0.89649,-7.74218 0.99016,-1.56455 2.65579,-1.41329 2.02343,0.18359 -0.69263,1.74898 1.8632,7.85112 4.18946,10.00195 2.20717,2.04055 8.23033,3.56009 8.24609,2.08008 0.008,-0.54998 -1.28742,-1.27462 -2.87305,-1.60937 -5.23521,-1.10525 -10.23835,-13.65116 -6.61718,-16.5918 1.79062,-1.45414 2.11738,-1.02254 3.58984,4.71094 0.94485,3.67894 1.74109,4.62681 5.24414,6.24023 2.53531,1.16773 5.23684,1.69175 6.9961,1.35938 2.7908,-0.5273 2.85576,-0.44041 2.50586,3.27148 -0.31786,3.37267 -0.8753,4.07657 -4.84766,6.11719 -10.11957,5.19846 -14.47701,13.4522 -14.76758,27.97656 -0.12926,6.46035 -0.43091,7.56187 -2.52734,9.22266 -1.30961,1.03743 -2.99831,1.88111 -3.75391,1.87304 -1.07735,-0.0113 -1.25582,1.23846 -0.82812,5.80079 0.35829,3.82386 -0.0384,8.26001 -1.1543,12.9375 -2.61158,10.94149 -1.96088,19.21323 1.81445,23.08203 1.72426,1.76687 1.58899,9.69509 -0.19336,11.35547 -2.61721,2.43826 -5.49592,4.6046 -7.52734,5.66406 -4.78367,2.49488 -15.8867,-0.10695 -19.80078,-4.64063 -3.85557,-4.46601 -3.7942,-8.33053 0.30859,-18.9375 2.03437,-5.25928 3.71339,-10.87397 3.73047,-12.47851 0.0189,-1.60454 0.48548,-3.18939 1.03906,-3.52344 1.66689,-1.00577 1.18623,-4.27729 -1.39844,-9.51562 -2.65356,-5.37809 -3.02796,-9.92066 -1.22656,-14.91602 0.63213,-1.75351 0.84464,-3.50066 0.47266,-3.88086 -0.89696,-0.91627 -4.53864,3.7773 -4.58789,5.91602 -0.0227,0.92304 -0.73126,2.35653 -1.57617,3.18359 -1.1206,1.09709 -1.37498,2.59114 -0.9375,5.52734 0.49013,3.2898 0.97589,3.98914 2.6582,3.83008 3.28301,-0.31037 5.08985,3.97415 4.14648,9.83789 -0.62536,3.8872 -0.98697,4.54246 -1.74023,3.16211 -0.52248,-0.9572 -0.69335,-2.51882 -0.38086,-3.46875 0.31257,-0.94996 -0.42189,-3.30991 -1.63281,-5.24609 l -2.20117,-3.51953 -0.28711,4.49609 c -0.37981,5.9868 -2.52918,14.9741 -3.58008,14.96289 -0.46212,-0.005 -0.84862,0.66528 -0.85742,1.49024 -0.008,0.82494 0.43441,1.50585 0.98437,1.51171 0.55,0.006 1.00444,-0.39995 1.00977,-0.89843 0.004,-0.49849 0.91255,-0.65906 2.01758,-0.35743 1.54507,0.42168 1.87113,0.17304 1.40624,-1.07812 -0.33222,-0.8949 -0.29503,-2.41065 0.0859,-3.36914 0.65685,-1.65211 0.74583,-1.64812 1.67578,0.0508 1.06492,1.9454 -0.41091,7.62817 -2.89648,11.1582 -0.75825,1.07685 -1.38605,2.75875 -1.39648,3.73633 -0.0302,2.67963 -4.25045,2.18473 -7.01563,-0.82226 -3.20734,-3.48791 -2.84634,-7.72122 1.32422,-15.53516 3.10409,-5.81549 3.40438,-7.11052 3.3418,-14.39063 -0.10772,-12.51773 -2.45077,-22.00149 -6.92188,-28.01953 -3.95701,-5.32601 -5.42186,-9.36218 -4.36719,-12.02539 0.88577,-2.23676 2.16369,-1.92995 2.93555,0.70313 1.11878,3.81677 3.42892,5.66977 7.98242,6.40234 4.51956,0.72711 10.14221,-0.0494 8.97656,-1.24023 -0.3651,-0.37357 -2.11705,-0.56959 -3.89453,-0.43555 -3.95595,0.29836 -8.64945,-1.42359 -8.63086,-3.16602 0.008,-0.70668 -1.09986,-2.50841 -2.45898,-4.00586 -1.35908,-1.49746 -2.46201,-3.40408 -2.45313,-4.23437 0.008,-0.83031 -0.72992,-3.11109 -1.63867,-5.07031 -1.65214,-3.56186 -1.65065,-3.56319 2.35742,-11.1543 4.40145,-8.33622 4.49557,-9.55839 1.47852,-19.20898 -1.10056,-3.52018 -2.03271,-8.82085 -2.07031,-11.78125 -0.0612,-4.84094 0.23757,-5.62661 2.95898,-7.80469 4.06197,-3.25083 5.14517,-3.09209 7.05274,1.04101 0.89106,1.93075 3.41699,5.34622 5.61328,7.58985 3.54606,3.6225 3.86774,4.34478 2.8789,6.45508 -0.61239,1.30703 -1.4491,5.08595 -1.85937,8.39648 -0.69294,5.59035 -0.98643,6.13108 -4.13867,7.58594 -1.86671,0.86155 -3.40106,1.88288 -3.40821,2.26953 -0.008,0.38663 -1.28488,1.40814 -2.83789,2.26953 -1.55297,0.86141 -3.64314,3.24352 -4.64453,5.29688 -1.55308,3.18472 -1.65899,4.4074 -0.72265,8.30078 0.6037,2.51029 1.76605,5.8917 2.58398,7.51562 1.96902,3.90933 9.23721,7.28059 13.91211,6.45508 5.31526,-0.93858 4.18758,-2.72832 -1.33008,-2.11133 -5.43606,0.60787 -10.38323,-1.72326 -10.80469,-5.09179 -0.13568,-1.08601 -0.53085,-3.83154 -0.8789,-6.10157 -0.4063,-2.64882 -0.2318,-4.37038 0.48828,-4.80469 0.64679,-0.3903 1.11537,0.004 1.10547,0.93165 -0.0227,2.25137 2.763,7.53974 3.98047,7.55273 0.62041,0.007 0.55196,-0.86162 -0.17579,-2.25195 -0.65159,-1.24453 -1.46689,-3.61576 -1.8125,-5.26953 -0.34544,-1.65379 -1.13904,-2.9055 -1.76171,-2.78125 -2.02148,0.40341 -0.21558,-2.18325 3.11914,-4.46875 11.44032,-7.84053 15.82059,-12.67724 18.15429,-20.05274 0.91348,-2.88679 2.44687,-4.96387 4.85938,-6.57617 l 3.52539,-2.35352 0.84375,2.27149 c 1.89933,5.10604 2.91906,6.68481 5.64062,8.74219 1.97352,1.49186 3.62773,1.97201 5.36914,1.55468 3.59573,-0.86181 3.26392,-3.37834 -0.45117,-3.41797 -4.05388,-0.0432 -6.96595,-3.21069 -6.91992,-7.52539 0.0227,-2.20439 -0.57322,-3.79996 -1.65039,-4.41797 -1.48509,-0.85201 -1.28653,-1.30161 1.65625,-3.78124 1.83738,-1.54826 4.73658,-3.57874 6.44141,-4.51172 1.70475,-0.93298 6.15765,-4.59784 9.89843,-8.14454 3.74075,-3.54669 7.6575,-6.43886 8.70118,-6.42773 z m 84.74023,0.93359 c 0.54996,0.006 0.32105,0.44051 -0.50976,0.96485 -1.30164,0.82155 -1.27717,0.95756 0.17968,0.98633 0.92996,0.0178 1.96495,0.48547 2.29883,1.03906 0.33335,0.5536 0.46861,0.96903 0.29883,0.92383 -0.1697,-0.0452 -1.59165,-0.56438 -3.16016,-1.1543 -2.13936,-0.80459 -2.5099,-1.28496 -1.48047,-1.92187 0.75478,-0.46698 1.82309,-0.84376 2.37305,-0.8379 z m 5.64648,3.03125 c 1.41759,0.0151 3.12884,0.70681 3.80469,1.53907 0.67563,0.83225 0.83847,1.45563 0.35938,1.38672 -4.93535,-0.70986 -8.15056,-2.96831 -4.16407,-2.92579 z m 6.50391,2.25782 c 0.44757,-0.003 1.21485,0.26317 1.96289,0.70898 0.99749,0.59436 1.36273,1.09616 0.8125,1.11524 -0.55026,0.0193 -0.33116,0.47955 0.48828,1.02148 0.87304,0.57758 1.0034,0.98658 0.3125,0.98828 -1.39396,0.003 -4.59711,-3.06202 -3.90625,-3.73828 0.0658,-0.0643 0.18117,-0.0947 0.33008,-0.0957 z m -29.52148,7.56836 h 0.002 c 0.87934,0.0159 1.78138,0.35044 2.7207,1 1.24437,0.86049 0.91372,1.51121 -2.00586,3.96289 -1.92151,1.61359 -3.03715,2.94132 -2.48046,2.94726 0.55668,0.006 1.55958,-0.52481 2.22656,-1.17773 0.94344,-0.92333 1.20774,-0.85409 1.19531,0.3125 -0.008,0.82492 -0.5615,2.03457 -1.22852,2.6875 -0.94321,0.92331 -0.94647,1.19121 -0.0117,1.20117 0.65998,0.007 1.1924,0.68677 1.18359,1.51172 -0.008,0.82496 0.49011,1.50513 1.10742,1.51172 0.80315,0.009 0.78052,0.412 -0.0742,1.41992 -0.98026,1.15586 -0.82344,1.31792 0.86914,0.89453 1.22412,-0.30622 2.05831,-0.0367 2.05078,0.66602 -0.008,0.71156 0.75483,0.94884 1.91016,0.5957 1.05721,-0.32319 2.22464,-0.0848 2.59375,0.52734 0.47044,0.77965 1.17096,0.68726 2.33789,-0.30664 0.91627,-0.78039 2.79579,-1.945 4.17774,-2.58789 l 2.51171,-1.16797 -2.52148,2.09571 -2.52344,2.0957 4.17774,-1.98242 c 2.29731,-1.09133 5.0188,-3.02124 6.04687,-4.28906 2.60531,-3.21291 4.38707,-4.14212 4.36719,-2.27735 -0.0265,2.62001 -5.63726,7.91593 -11.35742,10.72266 -9.32327,4.57469 -17.18898,2.72665 -21.05664,-4.94727 -2.76102,-5.47808 -2.93151,-9.79611 -0.50782,-12.81054 1.41953,-1.76562 2.82317,-2.62971 4.28907,-2.60547 z m 11.41601,3.72265 c 0.47524,0.0333 0.9597,0.16708 1.42383,0.42188 1.48827,0.81702 1.65026,1.41621 0.79688,2.9707 -1.3205,2.40533 -4.56045,2.50994 -5.42774,0.17578 -0.73289,-1.97259 1.14779,-3.7136 3.20703,-3.56836 z m -136.82617,2.86914 c -1.80321,-0.0193 0.062,4.34238 2.86133,6.68946 1.43543,1.20357 2.7857,2.02074 3,1.81445 0.63156,-0.60816 -2.78491,-5.47105 -3.85156,-5.48242 -0.5373,-0.006 -0.96779,-0.68677 -0.95899,-1.51172 0.008,-0.82495 -0.46371,-1.5035 -1.05078,-1.50977 z m 228.42969,0.79297 c 0.2759,-0.0317 0.65622,0.62706 0.90234,1.61133 0.2812,1.12487 0.31498,2.04358 0.0742,2.04102 -0.71089,-0.008 -1.63268,-3.06052 -1.08594,-3.59571 0.034,-0.0336 0.0697,-0.0521 0.10938,-0.0566 z m -206.83789,2.4375 c 0.24264,0.003 0.43554,0.45393 0.42969,1.00391 -0.008,0.54997 -0.48594,0.99449 -1.06836,0.98828 -0.58228,-0.006 -0.77728,-0.45756 -0.43164,-1.00391 0.34582,-0.54635 0.82766,-0.99087 1.07031,-0.98828 z m 141.80469,5.91211 c 0.8163,0.0752 1.88113,0.53155 3.26171,1.31836 2.08147,1.1863 5.57256,3.14838 7.75977,4.36133 2.18717,1.21294 4.9548,3.40768 6.15234,4.87695 1.19758,1.46928 2.50328,2.35357 2.90039,1.96485 0.78766,-0.77104 4.54597,1.41274 8.09571,4.70507 1.23719,1.14745 2.95617,2.19806 3.81836,2.33399 2.63096,0.41486 2.74326,1.14272 1.32617,8.61133 -2.54393,13.40776 -7.02441,19.72168 -20.01563,28.21093 -9.90293,6.4712 -11.61324,13.54749 -5.63086,23.29297 5.21885,8.50162 4.6553,18.5649 -1.20312,21.51563 -1.63873,0.82537 -2.9668,2.05302 -2.95508,2.72656 0.0302,1.54762 10.3799,12.8366 11.7832,12.85156 2.1831,0.0234 0.8464,1.73088 -4.26367,5.44531 -2.91016,2.11542 -6.59235,5.08945 -8.18164,6.60938 -3.19563,3.05623 -4.03901,2.90602 -6.01562,-1.06641 -1.32526,-2.66337 -0.74727,-11.03711 1.06445,-15.42382 0.49859,-1.20721 0.24612,-1.74839 -0.82031,-1.75977 -0.84673,-0.009 -1.8422,0.90477 -2.21289,2.03125 -0.37078,1.12651 -2.47047,3.31943 -4.66407,4.87305 -2.19356,1.55361 -5.84704,4.4694 -8.11914,6.47851 l -4.13086,3.65235 3.69141,3.45507 3.69141,3.45508 -0.18164,-4.28711 c -0.27818,-6.56573 -0.0263,-7.60264 1.98828,-8.21875 3.19717,-0.97733 4.98837,0.50846 7.54492,6.25391 2.57227,5.78062 3.14766,8.87374 1.44922,7.79883 -0.54524,-0.34504 -2.33171,0.14509 -3.97071,1.08984 -2.86503,1.65144 -3.06654,1.64363 -5.21093,-0.24609 l -2.23243,-1.96485 1.6875,2.74024 c 1.63571,2.65777 1.61925,2.78487 -0.58203,4.14062 -5.13792,3.16439 -6.52209,2.93864 -9.25586,-1.49609 -1.90862,-3.09506 -2.39491,-4.89619 -1.89843,-7.04688 1.00467,-4.35218 -0.10273,-5.11984 -3.88672,-2.68945 -1.8539,1.19059 -4.21996,2.70618 -5.25781,3.36719 -1.03779,0.66102 -1.20505,0.9896 -0.3711,0.73047 0.87678,-0.27239 3.0584,1.13419 5.17188,3.33398 9.48174,9.86898 9.61188,10.28813 4.60351,14.7168 -2.21253,1.95643 -4.87081,3.5462 -5.90625,3.53515 -1.03551,-0.011 -3.17768,0.63664 -4.76172,1.44141 -1.58407,0.80476 -4.1184,1.45454 -5.63086,1.44141 -1.51249,-0.0132 -2.75289,0.3547 -2.75781,0.8164 -0.0113,1.21036 -4.86742,3.18819 -5.45117,2.22071 -0.26948,-0.44712 -0.76527,-2.79837 -1.09961,-5.22461 -0.33449,-2.42625 -1.21782,-5.41444 -1.96484,-6.64063 -0.74699,-1.22619 -1.35666,-2.47129 -1.35352,-2.76562 0.0113,-1.17179 4.22594,-0.39135 6.64453,1.23047 l 2.56641,1.7207 -0.64844,-4.11133 c -0.57611,-3.64601 -0.4059,-4.18547 1.51758,-4.77344 1.57576,-0.48171 2.56505,-0.0847 3.61523,1.44922 0.79499,1.16113 2.08364,2.11864 2.86329,2.12696 1.50765,0.0163 4.41527,4.94391 4.38867,7.4375 -0.0189,1.64878 1.77218,3.15588 2.68554,2.26171 0.32013,-0.31339 0.14224,-1.14696 -0.39453,-1.85351 -0.53677,-0.70657 -1.99412,-4.33259 -3.24023,-8.05859 l -2.26563,-6.7754 -3.84961,-0.041 c -3.31128,-0.0352 -4.13082,0.42712 -5.875,3.3125 -1.46211,2.41884 -2.74164,3.34584 -4.58593,3.32617 -5.30767,-0.0566 -7.21012,1.93163 -7.69141,8.04102 -0.2434,3.09227 -0.0821,6.7737 0.35742,8.18164 0.96533,3.09377 5.46873,6.00941 9.35938,6.05468 2.43337,0.0302 3.10756,0.69134 4.66015,4.58399 2.17992,5.46561 7.0131,9.53742 11.37891,9.58398 1.73552,0.0189 3.15039,0.48325 3.14453,1.03321 -0.0189,1.61272 -5.03039,0.9249 -11.86328,-1.62696 -7.25401,-2.70912 -8.10692,-3.65648 -7.33008,-8.14062 0.45812,-2.64423 0.185,-3.34718 -1.51367,-3.90625 -1.13991,-0.37493 -3.74809,-0.24001 -5.79883,0.30273 -5.82867,1.54265 -6.72002,0.16493 -5.97266,-9.26367 0.5918,-7.4663 0.51676,-7.86595 -1.65624,-8.71875 -2.74557,-1.0775 -4.37391,-5.47439 -5.00196,-13.51367 -0.59762,-7.65009 -1.63189,-9.57149 -5.18359,-9.60938 -3.90157,-0.0416 -7.79751,-3.45824 -8.96289,-7.86132 -1.2172,-4.59887 -0.0574,-6.04352 3.51172,-4.3711 3.30697,1.54973 9.91984,1.60502 14.16992,0.11914 3.92768,-1.3731 6.39684,-5.73598 9.06836,-16.02343 1.57761,-6.07527 1.99244,-6.74506 3.87109,-6.25586 1.15737,0.30134 4.02371,0.87455 6.37109,1.27343 4.95561,0.84211 7.22689,-0.61974 10.41602,-6.70703 2.29674,-4.38398 5.02366,-5.30491 10.86133,-3.66601 4.43089,1.24394 4.49132,1.22263 9.92383,-3.36914 5.35139,-4.52321 7.24314,-6.60179 7.25781,-7.97852 0.008,-0.79996 0.38567,-1.45014 0.83789,-1.44531 1.01741,0.011 0.89924,-7.1364 -0.14648,-8.86914 -1.37114,-2.27243 -5.16142,-3.12042 -8.94922,-2.00196 -3.03145,0.89511 -3.9019,0.78657 -5.49414,-0.68554 -2.8577,-2.6422 -7.09507,-2.30737 -13.98828,1.10351 -3.65624,1.80916 -7.76312,3.06916 -9.94727,3.04883 -5.45616,-0.0503 -11.05676,1.69071 -11.44141,3.55859 -0.26683,1.29456 -1.66732,1.6339 -6.83593,1.65039 -5.80079,0.0185 -6.73274,-0.25898 -8.65625,-2.56835 -3.78634,-4.54576 -19.26711,-6.51348 -29.1211,-3.70118 -6.79695,1.93985 -8.78567,0.54404 -6.23437,-4.375 0.49262,-0.94983 1.47374,-3.5203 2.17968,-5.71289 0.70591,-2.1926 2.17166,-5.42389 3.25782,-7.17968 1.71284,-2.76883 2.37352,-3.10688 4.9707,-2.5586 5.22962,1.10407 10.40592,-2.38447 11.4668,-7.72461 1.33417,-6.71595 2.06153,-6.78401 7.8125,-0.74414 7.16084,7.5205 8.08498,8.18344 14.39453,10.33985 7.26663,2.48352 11.42975,2.40975 19.76758,-0.34961 15.62596,-5.17132 21.64162,-9.22866 32.67187,-22.03125 5.06903,-5.88353 7.9732,-12.01207 8.13281,-17.16211 0.12624,-4.05983 0.72365,-5.7377 2.51954,-5.57227 z m 59.96679,4.7168 c 1.05785,0.0106 2.56041,0.72128 2.55274,1.44336 -0.004,0.37406 -0.90894,0.73939 -2.00977,0.81054 -1.95054,0.12601 -2.5976,-0.8148 -1.38086,-2.00586 0.18142,-0.17763 0.48526,-0.25156 0.83789,-0.24804 z m -200.92187,1.67187 c -0.38136,0.0934 -0.55342,0.99549 -0.22657,2.79883 0.34016,1.87676 1.75745,4.43898 3.15039,5.69141 2.70838,2.43506 4.91284,2.92232 5.93165,1.3125 0.35338,-0.55843 -0.43698,-1.00493 -1.80665,-1.01953 -2.83577,-0.0302 -4.23393,-1.47231 -5.15624,-5.32032 -0.56667,-2.36436 -1.40223,-3.58289 -1.89258,-3.46289 z m 146.22851,2.37696 c -0.4594,-0.15901 -1.68456,2.76215 -2.15039,5.54687 -0.40853,2.44234 -0.20742,3.05653 0.875,2.6543 0.77412,-0.28766 1.40221,0.0643 1.39453,0.7832 -0.0264,2.36921 1.93624,-0.4813 2.64649,-3.8457 0.54107,-2.56297 0.35148,-3.21469 -0.94532,-3.22852 -0.8937,-0.009 -1.63674,-0.57995 -1.64453,-1.26758 -0.008,-0.4045 -0.0696,-0.60588 -0.17578,-0.64257 z m 6.27149,1.95703 c -0.95173,-0.0102 -2.49067,4.04019 -3.68946,9.71094 -0.57709,2.72985 -0.42692,3.14485 0.95118,2.63281 1.368,-0.50827 1.51526,-0.13607 0.89062,2.26172 -0.70016,2.68769 -0.63233,2.77568 1.0957,1.38867 1.40561,-1.12823 1.94166,-1.18253 2.25196,-0.22656 0.4309,1.32688 2.3491,1.805 2.09179,0.52148 -0.0828,-0.41342 0.22073,-1.64698 0.67579,-2.74219 0.4552,-1.0952 1.45756,-3.51703 2.22851,-5.38086 0.77163,-1.86383 1.13825,-3.65956 0.81445,-3.99023 -1.03986,-1.06224 -3.49627,3.19761 -2.92382,5.07031 0.37568,1.22862 0.0393,1.80262 -1.04883,1.79102 -1.34325,-0.0144 -1.49406,-0.86235 -0.9336,-5.25977 0.48941,-3.84021 0.37988,-4.84611 -0.41015,-3.75586 -0.93094,1.28473 -1.07898,1.2487 -1.07422,-0.26172 0.003,-0.96252 -0.4126,-1.75435 -0.91992,-1.75976 z m 52.05273,0.0117 c 0.1183,-0.0166 0.21625,-0.0166 0.29297,0 0.23017,0.0498 0.26584,0.24523 0.0625,0.5664 -0.34394,0.54394 0.0755,1.26636 0.93164,1.60547 0.85633,0.3391 1.55213,1.01669 1.54688,1.50781 -0.0113,1.15025 -1.07021,1.07908 -3.24805,-0.2207 -2.15067,-1.28355 -2.21182,-2.54306 -0.16211,-3.30469 0.2245,-0.0835 0.41838,-0.13245 0.57617,-0.15429 z m -58.24219,0.86523 v 0.002 c 0.20901,-0.0193 0.45171,0.0752 0.70313,0.33204 0.32882,0.33581 0.4012,1.17686 0.16211,1.86914 -0.34961,1.01238 -0.58599,1.01071 -1.20508,-0.0156 -0.6147,-1.01873 -0.28642,-2.12932 0.33984,-2.1875 z m 32.52735,0.43359 c 0.74989,0.0855 1.5702,0.55181 1.85937,1.33008 0.27515,0.74036 0.0907,1.97625 -0.4082,2.7461 -0.73251,1.13047 -0.90609,1.06381 -0.90234,-0.34961 0.003,-0.96253 -0.44805,-1.7539 -0.99805,-1.75977 -0.54996,-0.006 -0.99414,-0.46175 -0.98828,-1.01172 0.008,-0.74439 0.68764,-1.04057 1.4375,-0.95508 z m -14.82031,3 c -0.0945,-0.0102 -0.20971,0.0447 -0.34766,0.17969 -0.3916,0.38331 -0.86731,1.9165 -1.0586,3.40625 -0.26834,2.08951 -0.11448,2.36949 0.67579,1.2207 1.00875,-1.46666 1.38988,-4.7361 0.73047,-4.80664 z m -133.3125,2.73829 c -0.15119,-0.0246 -0.26104,0.3387 -0.29883,1.0664 -0.0548,1.05365 0.17575,1.6471 0.51172,1.31836 0.33562,-0.32874 0.38264,-1.1911 0.10156,-1.91601 -0.11679,-0.3004 -0.22375,-0.45402 -0.31445,-0.46875 z m 153.24609,0.28711 c 0.33335,0.004 1.50642,1.17528 2.60547,2.60351 1.50141,1.95119 2.58899,2.45494 4.37304,2.02734 1.72441,-0.4133 2.36929,-0.15094 2.35743,0.96289 -0.008,0.84352 1.24569,2.32986 2.78906,3.30079 3.71728,2.33858 9.08419,8.6836 9.0625,10.71484 -0.0113,0.88984 0.33156,1.62241 0.75781,1.62695 0.42637,0.005 0.78168,6.30922 0.79102,14.00977 0.008,7.70053 -0.10424,13.99964 -0.25391,13.99805 -0.35263,-0.004 -2.19087,-3.9515 -3.04297,-6.53321 -0.36434,-1.10396 -0.83673,-4.93427 -1.04687,-8.51172 -0.36019,-6.12776 -1.80545,-11.89956 -3.26563,-13.03515 -0.3583,-0.27886 -1.82141,-2.41991 -3.25,-4.75586 -1.42862,-2.33595 -4.82403,-6.6344 -7.54687,-9.55078 -4.59353,-4.92001 -5.82904,-6.87341 -4.33008,-6.85742 z m 21.75781,0.63476 c 0.15043,-0.0359 0.35356,0.1757 0.625,0.60547 0.52437,0.83063 0.95194,2.29723 0.94922,3.25977 -0.003,0.96251 -0.45199,1.74414 -1.00195,1.73828 -0.55,-0.006 -0.97579,-1.47245 -0.94922,-3.25977 0.0227,-1.54122 0.12592,-2.28391 0.37695,-2.34375 z m -63.17187,0.99609 c -0.3885,-0.0155 -0.97216,0.27999 -1.48633,0.78711 -0.99077,0.9771 -0.87624,1.09386 0.55469,0.56641 0.99004,-0.36499 1.55083,-0.91735 1.24609,-1.22852 -0.0763,-0.0777 -0.18519,-0.11978 -0.31445,-0.125 z m 19.46289,2.29688 c -0.21544,0.0333 -0.61759,0.34908 -1.20508,0.82617 -0.83229,0.67585 -1.51997,1.79409 -1.52734,2.48438 -0.008,0.69026 -0.66755,1.78453 -1.4668,2.43359 -0.79945,0.64908 -1.21471,1.82533 -0.92188,2.61328 0.9425,2.53659 2.09316,1.55696 3.77539,-3.21289 1.38592,-3.92939 1.82,-5.21796 1.34571,-5.14453 z m -22.41211,0.84961 c -1.35236,-0.0144 -2.72926,0.70138 -3.06836,1.59375 -0.33827,0.89019 -1.10275,1.94927 -1.69727,2.35547 -0.7271,0.49679 -0.59179,1.0671 0.41016,1.74023 1.80155,1.21027 2.23223,1.28139 1.71289,0.28321 -0.21581,-0.41483 0.4161,-1.50424 1.4043,-2.42188 1.2102,-1.12378 1.91944,-1.29107 2.17187,-0.50586 0.20636,0.64118 0.63296,0.22549 0.94727,-0.92578 0.46563,-1.7061 0.11813,-2.09782 -1.88086,-2.11914 z m -5.92578,6.6875 c -0.2041,-0.002 -0.86252,0.89071 -1.46289,1.98437 -0.60322,1.09855 -0.68112,1.99264 -0.17383,1.99805 0.50521,0.005 1.16355,-0.88751 1.46289,-1.98437 0.29934,-1.09688 0.37792,-1.99587 0.17383,-1.99805 z m -5.46289,4.13281 c -1.06235,-0.003 -2.06773,0.85952 -3.79297,2.58008 -4.97957,4.96603 -14.93857,10.12836 -22.11914,11.4668 -1.78485,0.33271 -3.50512,1.01716 -3.82422,1.52148 -0.71656,1.13224 -0.70736,1.13363 3.43164,-0.006 1.86425,-0.51319 4.10271,-0.55207 4.99219,-0.084 2.18059,1.14746 4.13304,0.34823 3.4746,-1.42383 -0.35943,-0.96696 0.14857,-1.43282 1.54102,-1.41797 1.45773,0.0155 1.89584,0.47814 1.46875,1.55664 -0.53223,1.34398 -0.0634,1.32731 3.78125,-0.11719 2.41482,-0.90717 5.18698,-2.3143 6.1582,-3.1289 1.33754,-1.12184 1.76239,-1.16941 1.75196,-0.18946 -0.0113,0.97788 1.47906,1.17646 6.10547,0.80664 9.53302,-0.76201 9.62406,-1.46062 1.16601,-8.96093 -1.95281,-1.73172 -3.07241,-2.6003 -4.13476,-2.60352 z m -2.44532,3.95899 c 1.02962,-0.0231 2.10067,0.38735 2.57032,1.24804 0.48393,0.88672 1.84183,1.62416 3.01953,1.63672 2.10364,0.0223 2.10938,-0.006 0.21875,-1.57226 -1.05835,-0.877 -1.25428,-1.26175 -0.4336,-0.85352 0.82069,0.40822 2.2835,1.43645 3.25,2.28516 1.3598,1.19407 1.46678,1.72295 0.47461,2.33789 -0.70518,0.43707 -2.18156,0.76317 -3.28125,0.72461 -2.88495,-0.10095 -8.56873,-3.20749 -8.14062,-4.44922 0.30274,-0.87802 1.29268,-1.33431 2.32226,-1.35742 z m 62.57032,4.54492 c 1.59749,-0.0556 3.25799,2.44043 4.33398,6.83984 0.70927,2.89987 1.769,6.19192 2.35547,7.31641 1.09519,2.09992 0.32492,4.07934 -0.9043,2.32422 -0.37682,-0.53813 -1.3311,-0.98767 -2.12109,-0.9961 -0.79004,-0.008 -1.80498,-1.49661 -2.25391,-3.30859 -0.91699,-3.70099 -2.73848,-3.45487 -2.77929,0.375 -0.0151,1.37492 -0.4426,2.23592 -0.95118,1.91406 -0.50861,-0.32186 -1.21307,-0.13144 -1.56445,0.42383 -0.3515,0.55525 -0.1244,1.01478 0.50391,1.02148 0.62823,0.007 0.944,0.57287 0.70117,1.25782 -0.60681,1.71129 2.57556,9.13881 5.72265,13.35742 4.0746,5.4619 5.21068,4.26814 2.16211,-2.27149 -1.33693,-2.86808 -0.19177,-4.04349 2.35352,-2.41601 1.61794,1.03461 2.0677,0.9906 2.56055,-0.25391 0.62468,-1.57738 2.3857,-1.11967 2.36718,0.61524 -0.008,0.54997 -0.45753,0.71492 -1.0039,0.36914 -1.51926,-0.96151 -1.20085,1.08565 0.37695,2.42382 0.89231,0.75678 1.51814,0.8178 1.74805,0.16797 0.19691,-0.55684 1.33325,-0.74485 2.52539,-0.41797 1.89452,0.51947 2.23191,1.49641 2.67578,7.75391 0.28044,3.93754 0.14287,30.49583 -0.30273,59.01953 l -0.81055,51.86133 -5.02149,1.91016 c -3.00994,1.14572 -7.44828,4.19296 -11.08203,7.60742 -3.33365,3.13236 -7.64062,6.19239 -9.57226,6.80078 -3.86109,1.21595 -56.28169,1.53935 -60.20117,0.37109 l -2.29883,-0.68359 2.25586,-0.68359 c 4.28776,-1.29472 3.07005,-4.57353 -5.42383,-14.60157 -2.5358,-2.99372 -3.11886,-4.40634 -2.54883,-6.16601 0.95006,-2.93322 2.25796,-3.73282 6.08008,-3.71094 3.69316,0.0189 9.41781,-2.55686 11.26562,-5.07422 0.72934,-0.99356 1.97576,-1.80143 2.76953,-1.79297 0.79374,0.008 1.45309,-0.88442 1.46485,-1.98437 0.0227,-2.29572 -0.2579,-2.35506 -4.95313,-1.0625 -3.09845,0.853 -3.75604,0.66398 -6.30468,-1.81641 -3.37524,-3.28475 -6.25264,-9.59266 -4.61524,-10.11914 2.83431,-0.9113 7.06867,-5.47563 7.0918,-7.64453 0.0302,-2.73682 3.61594,-6.41265 6.23047,-6.38477 0.9815,0.0106 3.81666,-0.93987 6.29883,-2.11328 l 4.51367,-2.13281 2.16406,2.81055 c 1.19006,1.54659 3.03035,3.63819 4.0918,4.64843 4.75657,4.52715 -5.0396,5.70966 -10.24219,1.23633 -1.69992,-1.46165 -3.25778,-2.49088 -3.46289,-2.28711 -0.84151,0.83512 1.55691,11.47086 2.81055,12.46289 0.74513,0.58969 2.85032,0.90626 4.67968,0.70508 2.70543,-0.29748 3.6693,-1.07461 5.15821,-4.16406 1.00679,-2.08904 3.0577,-4.57905 4.55859,-5.53516 6.17987,-3.9369 18.09673,-17.22007 15.47461,-17.24804 -1.46975,-0.0155 -6.13185,4.81875 -6.14844,6.375 -0.008,0.7411 -0.72999,1.61295 -1.60351,1.9375 -2.20638,0.81977 -2.42566,0.75545 -2.41016,-0.69727 0.0189,-1.79717 -3.60644,-4.76119 -5.85352,-4.78516 -3.85852,-0.0412 -3.31138,-3.2572 1.32618,-7.79687 l 4.47265,-4.37891 2.09375,2.14258 c 1.15264,1.1775 2.74925,2.14579 3.54688,2.1543 0.79759,0.009 1.88022,0.80135 2.40429,1.76172 0.83721,1.53423 1.03546,1.4284 1.63868,-0.8711 0.54958,-2.09469 1.74988,-2.93798 6.01757,-4.23046 4.38667,-1.32854 5.42688,-2.08484 5.86719,-4.26172 0.67952,-3.36035 -1.72987,-5.41646 -5.49609,-4.68946 -4.01654,0.77532 -3.51228,-1.47452 1.37695,-6.13086 5.22112,-4.97243 7.62438,-8.88071 8.40039,-13.66601 0.46057,-2.84018 0.23902,-3.94513 -0.88086,-4.38867 -0.82341,-0.32603 -1.26286,-1.18521 -0.97656,-1.90821 0.33109,-0.8359 -0.01,-1.11717 -0.93359,-0.77343 -0.80021,0.29729 -1.45963,0.94246 -1.46485,1.43359 -0.004,0.49113 -0.47557,0.88693 -1.04492,0.88086 -0.68198,-0.007 -0.63828,-0.7291 0.125,-2.11914 0.63719,-1.16046 0.91116,-3.40804 0.61133,-4.99414 -0.29972,-1.5861 -0.21868,-2.86413 0.17969,-2.83985 1.50772,0.0921 6.13123,8.91192 6.11328,11.66016 -0.0385,5.39656 1.10836,10.62262 2.01953,9.21875 0.68462,-1.05483 0.86823,-1.01946 0.92383,0.18164 0.0472,1.01105 0.35579,0.85083 0.94922,-0.49023 0.85666,-1.93611 0.88154,-1.93053 0.92773,0.15429 0.0265,1.17901 -0.62867,2.39538 -1.45703,2.70313 -2.02817,0.7536 -1.96869,5.24522 0.0801,6.05664 0.93301,0.36949 2.50726,-0.10508 3.6582,-1.10352 1.47621,-1.28064 2.13374,-1.4167 2.44336,-0.5 0.92115,2.72651 3.14679,1.19193 3.56836,-2.46093 0.23773,-2.06009 0.41805,-0.37118 0.4043,3.7539 -0.0151,4.12509 -0.23188,6.67033 -0.48243,5.6543 -0.43449,-1.76227 -0.52025,-1.75936 -1.85351,0.10156 -0.76872,1.07296 -1.72145,3.91911 -2.11524,6.32227 -0.8804,5.37199 -9.67626,23.76102 -13.80664,28.86328 -2.68547,3.31737 -3.29863,3.62128 -5.3457,2.66211 -2.93703,-1.37624 -6.58185,0.32968 -6.61133,3.09375 -0.0529,4.97903 11.19661,1.7613 12.66602,-3.62305 0.336,-1.23016 1.0779,-1.94238 1.65039,-1.58008 0.60895,0.38558 0.74904,0.17444 0.33594,-0.50976 -0.38794,-0.64291 0.28546,-2.53068 1.49804,-4.19532 2.10221,-2.88662 2.29166,-2.94469 4.07813,-1.29296 1.21546,1.12379 1.87825,1.3006 1.88672,0.50585 0.008,-0.6736 1.28881,-3.09242 2.84961,-5.375 4.14746,-6.06558 5.47233,-9.40951 6.38085,-16.11328 0.44663,-3.29542 1.40974,-9.36108 2.14063,-13.47851 1.43822,-8.10225 0.35674,-15.99622 -2.19531,-16.02344 -0.71003,-0.008 -3.99339,-2.51008 -7.29493,-5.5625 -6.31268,-5.83628 -12.95055,-17.32516 -16.42968,-28.43555 -1.89321,-6.04567 -1.52103,-6.85195 6.0957,-13.25586 2.22002,-1.86652 4.58004,-4.06484 5.24414,-4.88281 0.49482,-0.60951 1.02024,-0.90923 1.55274,-0.92773 z m -132.17969,1.55859 c -1.00369,-0.0569 -2.09904,0.17459 -2.45703,0.74024 -0.27251,0.43041 0.59754,0.88305 1.93164,1.00781 1.33413,0.12476 2.42972,-0.21599 2.43554,-0.75977 0.008,-0.58558 -0.90646,-0.93138 -1.91015,-0.98828 z m 69.45312,4.47656 c -0.29934,0.0242 -0.51251,0.13021 -0.63281,0.32032 -0.36246,0.57294 -1.51358,1.19371 -2.56055,1.3789 -1.04696,0.1852 -2.05118,0.36801 -2.22851,0.40821 -0.17726,0.0402 0.38219,0.79331 1.24219,1.67187 0.85988,0.87856 1.30426,2.00747 0.98632,2.50977 -0.31785,0.5023 -0.12616,0.91991 0.42383,0.92578 1.76731,0.0189 2.34912,-2.01764 1.03906,-3.63086 -1.09818,-1.35226 -0.93634,-1.50987 1.17774,-1.16797 1.34646,0.21774 2.32835,0.9462 2.18359,1.61914 -0.40811,1.89829 12.13078,1.78425 13.75,-0.125 1.09607,-1.29239 0.6858,-1.41244 -3.16992,-0.92578 -3.40951,0.43033 -5.31792,0.0679 -8.30469,-1.57422 -1.573,-0.86478 -2.78574,-1.33943 -3.57812,-1.4082 -0.11906,-0.0102 -0.22835,-0.01 -0.32813,-0.002 z m -7.6582,2.16211 c -0.58227,-0.006 -0.78509,0.44055 -0.45117,0.99414 0.33373,0.5536 0.80423,1.00913 1.04687,1.01172 0.24265,0.003 0.44528,-0.44417 0.45117,-0.99414 0.008,-0.54998 -0.46444,-1.00551 -1.04687,-1.01172 z m -17.97266,1.9336 c -0.36396,10e-4 -0.74436,0.47363 -1.47461,1.41797 -0.81883,1.05894 -1.50858,2.5127 -1.53515,3.23242 -0.0265,0.71984 0.4093,1.03717 0.96289,0.70312 0.55359,-0.33403 1.01302,-1.25828 1.02148,-2.05078 0.0265,-2.32669 1.84687,-1.62924 2.17969,0.83399 0.23017,1.70305 0.46278,1.87697 0.95117,0.71679 0.35528,-0.84429 0.0306,-2.39655 -0.72265,-3.44922 -0.67117,-0.93872 -1.01885,-1.40575 -1.38282,-1.40429 z m -98.05078,4.34961 c -0.36245,0.0437 -0.75367,0.37101 -1.3164,0.92187 -0.89692,0.878 -1.87144,1.57749 -2.16602,1.55469 -0.83199,-0.0644 -0.83852,0.14167 -0.15234,5.46484 0.65994,5.12074 2.45698,8.2496 5.95898,10.375 2.32362,1.41024 7.67088,1.22855 8.18164,-0.27734 0.21695,-0.64023 -0.94159,-0.90762 -2.98242,-0.69141 -2.5254,0.26756 -4.10786,-0.30954 -6.49414,-2.36133 -1.73548,-1.49224 -2.92872,-3.07205 -2.65039,-3.51171 0.67725,-1.07016 7.87187,0.68133 8.30273,2.02148 0.18709,0.58112 1.3141,1.05351 2.50586,1.04883 2.03928,-0.008 2.0067,-0.12951 -0.56054,-2.08789 -1.66194,-1.26774 -2.71885,-3.0259 -2.70313,-4.49805 0.0151,-1.32904 -0.38104,-2.42049 -0.87695,-2.42578 -0.49595,-0.005 -1.76268,-1.40321 -2.81641,-3.10742 -1.10188,-1.78205 -1.6262,-2.49869 -2.23047,-2.42578 z m 112.68164,3.21289 c 0.13796,-0.0117 0.28006,-0.0111 0.42383,0.002 2.15694,0.1974 4.84279,3.1042 4.81641,5.57813 -0.034,3.1677 -5.7957,7.65385 -11.25391,8.76367 -2.65349,0.53955 -5.62642,1.68286 -6.60547,2.53906 -0.97908,0.85621 -3.49849,2.63467 -5.59961,3.95312 -2.10107,1.31847 -3.98287,2.39666 -4.18164,2.39454 -0.1988,-0.002 -0.648,-2.36839 -0.99609,-5.25977 -0.3481,-2.89138 -1.28895,-6.3175 -2.0918,-7.61133 -0.80273,-1.29386 -1.26697,-2.54062 -1.0332,-2.76953 0.23357,-0.22885 3.61605,-0.78083 7.51758,-1.22852 4.08211,-0.46841 9.15383,-1.85708 11.94531,-3.26953 2.66808,-1.34995 5.65257,-2.70437 6.63086,-3.00976 0.13871,-0.0433 0.28029,-0.0694 0.42773,-0.082 z m 82.36328,0.42968 c 0.67752,-0.0418 1.10996,1.00149 0.56446,2.38086 -0.705,1.77789 -2.26415,1.99237 -3.20117,0.43946 -0.35679,-0.59132 -1.28024,-0.83973 -2.05274,-0.55274 -0.77246,0.28702 -1.40043,0.0695 -1.39453,-0.48047 0.0151,-1.58681 3.35156,-2.4268 3.82227,-0.96289 0.33675,1.04671 0.57928,1.04166 1.25586,-0.0273 0.3394,-0.53605 0.69779,-0.7779 1.00585,-0.79688 z m -69.92773,3.26368 c 0.13569,0.0162 0.51437,0.46552 1.22852,1.36132 0.8584,1.07684 1.55745,2.32077 1.55273,2.76563 -0.004,0.44483 -0.45977,0.80665 -1.00977,0.80078 -0.54999,-0.006 -0.99563,-0.42666 -0.99023,-0.93164 0.004,-0.50499 -0.2438,-1.74503 -0.55273,-2.75586 -0.25701,-0.84089 -0.36421,-1.25651 -0.22852,-1.24023 z m -49.42773,6.45312 c 1.98315,0.0113 4.05832,1.52228 5.45312,4.5293 3.53038,7.61126 1.89461,10.5331 -8.48242,15.15625 -4.51219,2.01023 -13.09964,9.28107 -13.11914,11.10742 -0.0227,1.9778 -3.9383,0.83023 -5.91016,-1.73242 -1.57107,-2.04166 -2.02758,-4.10071 -1.97656,-8.88477 l 0.0664,-6.22461 4.93945,-0.53125 c 6.63798,-0.71443 12.60809,-4.49736 14.13086,-8.95117 1.02323,-2.99284 2.91532,-4.48037 4.89844,-4.46875 z m 8.7539,0.0215 c 1.83077,0.0197 3.39267,3.23857 3.35352,6.91015 -0.0495,4.65996 -1.75573,4.59905 -3.79297,-0.13672 -1.95311,-4.54003 -1.80581,-6.79738 0.43945,-6.77343 z m -57.54687,0.30468 c 1.99317,0.10587 3.76577,2.10502 6.34375,6.62305 2.04449,3.58305 4.33598,7.03837 5.08984,7.67773 0.7539,0.63938 1.36061,2.00648 1.34961,3.03907 -0.0265,2.54648 1.6525,2.37769 5.59375,-0.5625 1.81727,-1.3557 3.51032,-2.4636 3.75977,-2.46094 0.24944,0.003 0.60157,3.21301 0.78125,7.13476 0.29593,6.46105 0.60094,7.36203 3.25976,9.57227 2.26435,1.88225 3.67878,2.31313 6.19141,1.89258 1.79078,-0.29976 3.25131,-0.14397 3.24609,0.3457 -0.0151,1.397 -3.53594,4.16113 -5.27539,4.14258 -2.01275,-0.0215 -5.84501,6.28897 -6.44531,10.61133 -0.25436,1.83081 -1.89838,5.80987 -3.65235,8.8418 -2.60144,4.49464 -3.09677,6.25873 -2.68945,9.5625 0.27477,2.2286 1.47136,5.10969 2.6582,6.40039 1.18693,1.2907 2.20506,3.61959 2.26368,5.17578 0.0586,1.55618 0.52189,3.13221 1.02929,3.50195 0.50756,0.36971 0.80117,3.2985 0.6543,6.50781 -0.29027,6.34736 1.66906,11.82436 5.88867,16.47461 4.93232,5.43583 6.71889,8.35618 6.69141,10.9336 -0.0151,1.4657 0.4991,3.20394 1.14453,3.86328 1.25408,1.28111 1.42464,14.18865 0.21289,16.10351 -0.46518,0.73501 -5.63605,1.04088 -15.38867,0.91797 -14.21155,-0.18179 -14.74595,-0.26574 -16.35742,-2.53516 -1.13828,-1.60308 -1.33535,-2.66598 -0.62696,-3.35937 0.7084,-0.69339 0.23245,-2.31961 -1.5039,-5.13672 -1.39771,-2.2673 -2.53869,-4.54555 -2.53321,-5.06055 0.004,-0.51511 -0.32568,-1.08965 -0.73632,-1.27734 -0.4105,-0.18784 -2.06465,-3.05373 -3.67579,-6.37109 -1.61121,-3.31741 -5.82338,-9.2136 -9.36132,-13.10157 -11.06858,-12.16368 -10.54852,-11.25495 -7.75,-13.48828 2.32936,-1.85889 2.34482,-1.94198 0.41601,-2.58398 -1.09617,-0.3648 -3.9093,-1.55288 -6.25,-2.64063 -2.34077,-1.08773 -5.50704,-1.99344 -7.03711,-2.00976 -4.40126,-0.0469 -6.28308,-2.13514 -6.83984,-7.59766 l -0.5,-4.91211 2.59961,1.74414 c 4.69383,3.14758 10.70093,1.71708 20.64453,-4.91601 6.89393,-4.59873 7.68727,-4.79747 9.00977,-2.26172 0.51624,0.98983 2.0648,2.41721 3.43945,3.17187 2.1047,1.15547 2.71993,1.15585 3.89453,0.002 4.42651,-4.34827 4.97045,-6.44364 5.57812,-21.44922 0.32807,-8.0947 0.97232,-15.19962 1.43164,-15.78711 0.45929,-0.58751 1.12314,-1.85203 1.47657,-2.81055 0.53393,-1.4488 0.11363,-1.70505 -2.49024,-1.52539 -2.79322,0.19276 -3.37671,-0.27547 -5.41406,-4.31055 -3.24113,-6.41973 -4.95134,-15.9484 -3.07031,-17.11132 1.09345,-0.67599 2.04326,-1.01882 2.94922,-0.97071 z m -38.0918,1.67578 c -2.77603,-0.0295 1.13636,8.63044 5.2207,11.55665 1.16841,0.8371 3.48671,1.48971 5.15235,1.45117 l 3.02929,-0.0703 -3.2832,-0.81445 c -4.4516,-1.10497 -6.97782,-3.66131 -8.16406,-8.26172 -0.54633,-2.1186 -1.42632,-3.85568 -1.95508,-3.86133 z m 87.04492,3.98633 c -0.11943,0.0857 0.0379,0.55086 0.39844,1.44532 0.44576,1.1048 0.83306,2.7969 0.86133,3.75976 0.0782,2.67259 1.61952,2.10084 1.64843,-0.61133 0.0151,-1.30758 -0.72853,-3.00287 -1.64843,-3.76758 -0.74472,-0.61909 -1.14018,-0.91193 -1.25977,-0.82617 z m -103.56836,6.59571 c 0.0548,-0.0536 0.11172,0.26301 0.16992,0.99414 0.18558,2.3396 0.14563,6.16487 -0.0898,8.5 -0.23546,2.33512 -0.3877,0.42083 -0.33789,-4.25391 0.034,-3.21389 0.13762,-5.12224 0.25781,-5.24023 z m 111.39649,5.42968 c 0.54996,0.006 0.99609,0.46174 0.99023,1.01172 -0.008,0.54997 -0.46176,0.99415 -1.01172,0.98828 -0.54996,-0.006 -0.99414,-0.4598 -0.98828,-1.00976 0.008,-0.54998 0.45977,-0.9961 1.00977,-0.99024 z m -38.87696,1.08399 0.15235,6.64844 c 0.085,3.74788 0.72567,7.35297 1.46679,8.26562 h -0.002 c 0.72299,0.8903 1.7645,1.62304 2.31445,1.62891 0.55011,0.006 0.39189,-0.7333 -0.35351,-1.64258 -0.74517,-0.90929 -1.85588,-4.63441 -2.4668,-8.27735 z m -41.55273,0.63086 c -0.56821,-0.0423 -0.79198,0.52922 -1.0957,1.91797 -0.29972,1.37025 -0.8344,3.72754 -1.19141,5.23632 -0.35717,1.50877 -0.80092,5.10452 -0.98437,7.99024 -0.27478,4.32333 -0.0416,5.24605 1.31445,5.24805 3.62381,0.005 4.41749,-1.61108 4.95312,-10.07227 0.48174,-7.60956 0.3479,-8.46947 -1.50781,-9.625 -0.68152,-0.42437 -1.14737,-0.66996 -1.48828,-0.69531 z m 119.32812,0.73828 c -0.58764,0.0166 -0.36325,0.84462 0.75586,2.3789 1.37352,1.88285 1.85183,2.08309 2.13477,0.89258 0.20069,-0.84422 -0.23832,-1.92644 -0.97461,-2.40429 -0.9202,-0.59701 -1.56346,-0.8774 -1.91602,-0.86719 z m -64.74804,1.40625 c -0.18633,0.009 -0.19803,0.50658 -0.20899,1.5039 -0.0113,1.1134 0.27576,2.32867 0.63867,2.69922 0.88884,0.90805 2.33214,0.87131 2.30274,-0.0586 -0.0151,-0.41269 -0.67462,-1.63086 -1.4707,-2.70703 -0.71252,-0.96401 -1.07528,-1.44609 -1.26172,-1.4375 z m -3.24805,0.83008 c -0.46738,-0.005 -0.39146,1.34591 0.16602,3.00195 0.55755,1.65604 1.3938,3.01649 1.86132,3.02148 0.46746,0.005 0.3935,-1.34591 -0.16406,-3.00195 -0.55759,-1.65604 -1.39571,-3.01649 -1.86328,-3.02148 z m 75.41406,0.15039 c -0.15118,-0.0246 -0.26103,0.34065 -0.29883,1.06836 -0.0548,1.05364 0.1761,1.6471 0.51172,1.31836 0.33563,-0.32875 0.38261,-1.19111 0.10157,-1.91602 -0.11679,-0.3004 -0.22375,-0.45597 -0.31446,-0.4707 z m -4.01953,4.08398 c -0.77934,-0.1437 -0.18488,1.46232 1.82031,3.81641 1.5173,1.78113 2.85905,2.43809 4.22852,2.07031 4.80654,-1.29082 6.60291,-2.28812 5.98242,-3.31641 -0.47626,-0.78944 -0.96863,-0.79391 -1.75976,-0.0195 -1.79498,1.75708 -5.90759,1.17722 -8.36133,-1.17773 -0.91846,-0.88152 -1.5559,-1.30773 -1.91016,-1.37305 z m -88.91992,0.77149 c -0.15609,-0.0113 -0.14008,1.79955 0.0625,4.625 0.24907,3.47749 0.68085,6.93525 0.95898,7.68359 0.39342,1.05881 0.93175,0.94289 2.42969,-0.52344 1.57187,-1.53866 1.7422,-2.37963 0.93164,-4.58203 -0.54599,-1.48345 -1.60485,-3.1901 -2.35547,-3.79297 -0.75057,-0.60287 -1.60153,-1.99842 -1.89062,-3.10156 -0.054,-0.20685 -0.10081,-0.30595 -0.13672,-0.30859 z m 50.5332,4.34765 c -0.58242,-0.006 -1.06441,0.43831 -1.07031,0.98828 -0.008,0.54996 0.18911,1.00327 0.43164,1.00586 0.24265,0.003 0.72272,-0.4439 1.06836,-0.99023 0.34583,-0.54636 0.15259,-0.99769 -0.42969,-1.00391 z m -1.11328,4.98828 c -0.54909,-0.004 -1.00211,1.00417 -1.00781,2.24024 -0.008,1.81945 0.18014,1.96429 0.97656,0.75976 1.27277,-1.92417 1.28561,-2.98542 0.0332,-3 z m -84.5039,4.50196 c -0.50283,-0.0548 -0.59814,1.13218 -0.11133,3.46679 0.42527,2.03992 1.08822,2.84885 2.04297,2.49414 1.19988,-0.4458 1.18352,-0.97955 -0.10352,-3.53515 -0.80058,-1.58944 -1.43706,-2.38322 -1.82812,-2.42578 z m -34.71875,0.27148 c 0.32579,-0.0299 0.77241,0.17145 1.28711,0.69727 0.59618,0.60909 0.90044,1.64472 0.67382,2.30078 -0.2846,0.82444 -0.82687,0.68213 -1.75195,-0.45703 -1.05154,-1.29505 -0.92543,-2.47571 -0.20898,-2.54102 z m 112.95898,4.81445 c -0.3137,-0.0514 -1.05314,0.38466 -1.91211,1.16797 -1.14531,1.04444 -3.8309,2.16001 -5.96875,2.47852 -2.13785,0.3185 -4.17074,1.02541 -4.51562,1.57031 -0.37115,0.58629 0.79682,1.00537 2.85742,1.02734 3.40868,0.0363 9.67612,-3.85763 9.69922,-6.02539 10e-4,-0.13062 -0.0555,-0.20162 -0.16016,-0.21875 z m -108.33984,2.44727 h 0.002 c 1.4522,-0.24937 6.42285,4.2607 6.4043,6 -0.0113,0.99651 -0.35742,1.77651 -0.76954,1.73242 -1.18518,-0.12688 -6.49626,-7.01094 -5.87695,-7.61719 0.0623,-0.0611 0.14431,-0.0981 0.24024,-0.11523 z m 105.02343,4.42578 c -0.059,-0.0193 -0.11247,-0.0156 -0.1582,0.008 -0.0525,0.0265 -0.0976,0.0794 -0.13086,0.16407 -0.26419,0.67774 0.62877,3.72488 1.98438,6.77148 1.35564,3.04661 2.96659,5.54621 3.57812,5.55273 0.71554,0.008 0.57792,-0.97553 -0.38476,-2.75585 -0.82266,-1.52138 -2.21557,-4.57371 -3.09571,-6.78321 -0.67385,-1.69166 -1.38017,-2.8239 -1.79297,-2.95703 z m 102.70704,3.57617 c -0.70028,-0.0462 -1.90131,1.0969 -3.28126,3.27735 -1.83658,2.90199 -5.05411,6.05691 -15.03906,14.74023 -1.27317,1.10722 -2.78996,2.87482 -3.36914,3.92969 -0.94193,1.71581 -0.83672,1.80734 0.99219,0.85351 1.12437,-0.58643 2.40796,-1.64472 2.85156,-2.34961 0.44361,-0.70489 2.39232,-2.252 4.33008,-3.43945 1.93776,-1.18744 4.65458,-2.88115 6.03906,-3.76367 2.75399,-1.75545 8.1025,-9.55097 8.12696,-11.8457 0.0113,-0.91777 -0.23022,-1.37461 -0.65039,-1.40235 z m -157.8125,10.67383 c -3.07178,-0.31842 -5.58261,6.23004 -6.54102,17.27734 -0.62495,7.20328 -0.61069,7.25155 2.58789,10.02735 8.14541,7.06889 11.84646,11.39869 14.29687,16.72461 1.45652,3.16573 3.76043,7.10912 5.1211,8.76172 2.18646,2.65557 4.28642,3.90146 4.30078,2.55273 0.003,-0.25852 -1.09264,-2.94233 -2.43555,-5.96289 -1.34283,-3.02056 -2.43496,-6.19646 -2.42578,-7.05664 0.008,-0.86022 -0.48543,-1.56963 -1.09961,-1.57617 -0.62381,-0.008 -0.8767,-0.89086 -0.57226,-2.00586 0.35036,-1.28451 0.0515,-2.00028 -0.83789,-2.00977 -0.76082,-0.008 -2.07617,-1.09477 -2.92188,-2.41601 -0.84567,-1.32125 -4.19889,-4.38281 -7.45117,-6.80469 l -5.91211,-4.4043 0.13477,-5.52148 c 0.15344,-6.23659 2.02594,-13.15743 3.70507,-13.69727 0.61554,-0.19793 1.78505,1.35308 2.59961,3.44727 1.8991,4.88211 5.73898,9.09151 9.09766,9.97265 1.68556,0.44222 2.44259,1.18644 2.0957,2.0625 -0.30916,0.78047 0.0876,1.37585 0.92383,1.38477 0.80769,0.009 1.47397,-0.4822 1.48047,-1.0918 0.008,-0.68292 0.96967,-0.85614 2.50586,-0.45312 1.68559,0.44223 2.49664,0.23936 2.50586,-0.625 0.008,-0.70314 0.92005,-1.83067 2.02734,-2.50586 1.10725,-0.67519 2.02337,-2.13253 2.03516,-3.23828 0.0189,-1.68597 -0.42447,-1.90751 -2.73633,-1.38086 -1.51623,0.34541 -3.51791,1.0067 -4.44922,1.4707 -5.85747,2.9183 -12.44367,-0.76987 -14.57226,-8.16016 -0.62416,-2.16708 -1.90274,-4.24334 -2.8418,-4.61523 -0.20977,-0.0829 -0.41632,-0.13501 -0.62109,-0.15625 z m 124.17578,0.26563 c 0.6181,0.0457 1.36219,0.60338 2.45507,1.75976 1.27295,1.34688 3.14501,2.93635 4.16211,3.53125 1.07384,0.62807 1.53722,1.57642 1.10352,2.26172 -0.90852,1.43554 -2.63384,1.54293 -2.61914,0.16211 0.008,-0.54998 -1.03634,-1.01172 -2.31836,-1.02539 -2.9074,-0.031 -5.61623,-4.46685 -3.80859,-6.23633 0.33033,-0.32341 0.65461,-0.48054 1.02539,-0.45312 z m -132.38477,0.31835 c -0.47127,0.0151 -1.33046,0.35901 -2.875,1.04297 -1.39026,0.61563 -2.29501,1.50587 -2.00977,1.97852 0.71498,1.18488 2.39908,1.10216 2.41211,-0.11914 0.008,-0.54997 0.68481,-0.99317 1.50977,-0.98438 0.82496,0.009 1.50391,-0.4344 1.50977,-0.98437 0.008,-0.63466 -0.0756,-0.94872 -0.54688,-0.9336 z m -7.17578,3.92188 c -1.20457,-0.0514 -2.47272,0.35406 -2.81836,0.90039 -0.74358,1.17492 0.23528,1.18448 3,0.0312 1.93708,-0.80799 1.92983,-0.84131 -0.18164,-0.93164 z m 119.06641,9.67578 c -0.9165,-0.21037 -0.53697,5.56905 0.80468,8.87891 0.80024,1.97408 2.6832,3.97706 4.69727,4.99609 4.57761,2.3161 6.11217,2.1937 8.88672,-0.69726 2.56966,-2.67742 1.76666,-3.45034 -1.01953,-0.98243 -1.53033,1.35557 -2.14916,1.30754 -6.15625,-0.46093 -4.31237,-1.90315 -7.76612,-6.74255 -6.37696,-8.9375 0.2967,-0.46882 0.13335,-1.51038 -0.36328,-2.31446 -0.18444,-0.29911 -0.34169,-0.4524 -0.47265,-0.48242 z m -12.69336,7.48047 c 0.87851,-0.0197 1.13662,0.42697 1.12695,1.33203 -0.0227,2.14968 7.51422,11.42102 9.93164,12.2168 1.43429,0.47202 1.79836,1.02862 1.11328,1.69922 -0.5605,0.54867 -3.92863,1.19786 -7.48437,1.44531 l -6.46289,0.45117 -2.57618,-5.5957 c -1.41611,-3.07794 -3.02105,-5.87939 -3.5664,-6.22461 -1.86055,-1.17755 -0.97717,-2.29081 3.0625,-3.85742 2.47702,-0.96057 3.97692,-1.44703 4.85547,-1.4668 z m -71.98828,0.14063 c -1.27771,-0.0136 -1.09829,2.39363 0.2832,3.80468 1.75377,1.7918 3.4622,-0.26438 1.85937,-2.23828 -0.6949,-0.85579 -1.65801,-1.56126 -2.14062,-1.5664 z m 60.37304,6.59765 c 2.28276,0.10772 3.37704,1.58957 5.00586,5.35156 1.25601,2.90106 2.09198,5.61148 1.85742,6.02149 -0.51961,0.90875 -1.87493,0.82047 -5.83398,-0.37696 -2.20222,-0.66595 -3.60354,-2.12823 -5.13281,-5.36328 l -2.10157,-4.44922 2.19532,-0.56445 c 1.69069,-0.43411 2.97217,-0.66816 4.00976,-0.61914 z m 45.28711,1.5293 c -0.82496,-0.008 -1.78131,0.43218 -2.12695,0.97851 -0.34545,0.54633 0.0462,1.00096 0.87109,1.00977 0.82496,0.008 1.78327,-0.43219 2.12891,-0.97852 0.34545,-0.54636 -0.0482,-1.00096 -0.87305,-1.00976 z m -103.08008,1.38672 c -0.73455,0.10167 -0.81322,0.92891 0.0879,1.84961 0.94545,0.96578 2.32671,0.8473 2.33789,-0.20118 0.004,-0.49111 -0.66278,-1.15884 -1.48437,-1.48437 -0.37954,-0.15043 -0.69657,-0.19808 -0.94141,-0.16406 z m 96.22852,0.54101 c -0.83709,-0.008 -2.7947,1.88208 -4.35156,4.20313 -1.55687,2.32101 -4.12214,5.44374 -5.69922,6.93945 -3.36345,3.19021 -2.67126,3.49556 1.83984,0.81055 1.77218,-1.05476 3.98651,-3.39143 4.92383,-5.19336 0.93728,-1.80185 2.40559,-4.05631 3.25976,-5.00977 1.38467,-1.54669 1.38547,-1.73552 0.0293,-1.75 z m -128.09766,0.79883 c 1.8288,-0.0151 2.70522,0.94744 2.41797,2.86328 -0.20598,1.37292 -0.74101,2.9411 -1.18945,3.48633 -2.53285,3.08009 -4.34097,19.56223 -2.875,26.2207 0.66338,3.01308 0.53024,3.25729 -1.80078,3.23242 -3.1996,-0.034 -3.94773,-1.30249 -3.05274,-5.17968 0.39232,-1.69932 0.84102,-4.72265 0.9961,-6.7168 0.15496,-1.99412 0.64619,-5.08239 1.09179,-6.86523 0.72715,-2.90907 0.58489,-3.24458 -1.38867,-3.26563 -1.6196,-0.0189 -2.65247,1.02499 -3.91797,3.95703 -1.58887,3.68126 -4.18798,5.63734 -6.80859,5.1211 -1.61533,-0.31824 -7.49935,7.29583 -7.52539,9.73828 -0.0189,1.63521 -0.54331,2.05002 -2.26953,1.78515 -1.74675,-0.26796 -2.20191,-0.93912 -2.04102,-3.01953 0.11414,-1.47148 0.95441,-3.48826 1.86524,-4.48047 3.9273,-4.27804 8.40244,-10.99959 9.52734,-14.30664 1.45092,-4.26538 5.1499,-7.85712 11.07227,-10.74804 2.47634,-1.20881 4.47605,-1.81014 5.89843,-1.82227 z m 33.80078,3.98047 c -0.80549,-0.004 -0.67821,1.11422 0.45508,3.28711 1.021,1.95764 4.93461,2.79089 4.95313,1.05469 0.004,-0.51251 -1.32943,-1.90717 -2.9668,-3.09961 -1.14002,-0.83025 -1.95816,-1.23868 -2.44141,-1.24219 z m 156.58203,0.50391 c -0.6483,6.4e-4 -3.1409,1.85676 -5.78124,4.32226 -4.82597,4.50633 -5.0012,4.83643 -3.04102,5.75977 2.22055,1.04594 2.58082,0.94561 6.86133,-1.95118 1.93406,-1.30888 2.77939,-2.74236 2.80078,-4.74804 0.0151,-1.58 -0.31506,-3.091 -0.73633,-3.35742 -0.0265,-0.0151 -0.0604,-0.0234 -0.10352,-0.0234 z m -183.76757,1.78711 c 0.35603,-0.0189 0.60125,0.29208 0.58984,0.83203 -0.0151,0.71985 -0.47372,1.98153 -1.01562,2.80078 -0.80115,1.211 -0.9842,1.07813 -0.97657,-0.70313 0.004,-1.20506 0.46197,-2.46295 1.01563,-2.79687 0.13833,-0.0835 0.26804,-0.12639 0.38672,-0.13281 z m -14.35938,2.51367 c -1.23371,0.19842 -4.08819,3.39064 -4.07031,4.83007 0.0151,1.1023 0.77706,0.68998 2.4707,-1.33789 1.34816,-1.61419 2.2504,-3.14083 2.00586,-3.39062 -0.0499,-0.0506 -0.11096,-0.0822 -0.18164,-0.0977 -0.0665,-0.0151 -0.14259,-0.0147 -0.22461,-0.002 z m 47.5586,5.91601 c -0.9382,-0.0779 -0.70075,0.54497 0.46875,2.46289 0.86778,1.42307 1.44928,1.60856 2.38671,0.76172 1.53056,-1.38274 1.09728,-2.22239 -1.51562,-2.93555 -0.58239,-0.15874 -1.02713,-0.26336 -1.33984,-0.28906 z m -24.84375,10.88477 c 0.49942,-0.0518 1.27405,0.55858 1.8457,1.49609 0.65344,1.07146 0.78811,1.94467 0.30078,1.93946 -1.37235,-0.0151 -3.30146,-2.79403 -2.3418,-3.37305 0.0586,-0.0378 0.12388,-0.0549 0.19532,-0.0625 z m 146.00781,4.96679 c -0.54996,-0.008 -1.00391,0.44028 -1.00977,0.99024 -0.008,0.54996 0.43832,1.00391 0.98828,1.00976 0.55,0.008 1.00586,-0.43832 1.01172,-0.98828 0.008,-0.54999 -0.44027,-1.00586 -0.99023,-1.01172 z m -149.65625,0.72266 c 0.14967,0.0113 0.35403,0.25007 0.63281,0.69141 0.5243,0.83062 0.95485,2.07219 0.95508,2.75976 1.9e-4,0.68754 -0.44809,1.2461 -0.99805,1.24024 -0.54999,-0.008 -0.97874,-1.24938 -0.95508,-2.76172 0.0227,-1.3392 0.11617,-1.94851 0.36524,-1.92969 z"
       style="fill:#000000;stroke-width:0.999999"
       id="path634" />
  </g>
</svg>
