<svg width="24" height="15" viewBox="0 0 24 15" fill="none" xmlns="http://www.w3.org/2000/svg">
<path d="M11.7302 10.3835C11.9685 9.70817 12.4104 9.12335 12.995 8.70968C13.5796 8.29602 14.2782 8.07388 14.9943 8.07388C15.7105 8.07388 16.4091 8.29602 16.9937 8.70968C17.5783 9.12335 18.0202 9.70817 18.2585 10.3835H23.0682V12.6904H18.2585C18.0202 13.3657 17.5783 13.9505 16.9937 14.3642C16.4091 14.7779 15.7105 15 14.9943 15C14.2782 15 13.5796 14.7779 12.995 14.3642C12.4104 13.9505 11.9685 13.3657 11.7302 12.6904H0V10.3835H11.7302ZM4.80973 2.30965C5.04802 1.63429 5.48994 1.04947 6.07456 0.635807C6.65917 0.222142 7.35771 0 8.07388 0C8.79005 0 9.48858 0.222142 10.0732 0.635807C10.6578 1.04947 11.0997 1.63429 11.338 2.30965H23.0682V4.61647H11.338C11.0997 5.29183 10.6578 5.87665 10.0732 6.29031C9.48858 6.70398 8.79005 6.92612 8.07388 6.92612C7.35771 6.92612 6.65917 6.70398 6.07456 6.29031C5.48994 5.87665 5.04802 5.29183 4.80973 4.61647H0V2.30965H4.80973ZM8.07388 4.61647C8.37978 4.61647 8.67316 4.49495 8.88946 4.27865C9.10577 4.06234 9.22729 3.76896 9.22729 3.46306C9.22729 3.15716 9.10577 2.86378 8.88946 2.64748C8.67316 2.43117 8.37978 2.30965 8.07388 2.30965C7.76798 2.30965 7.4746 2.43117 7.25829 2.64748C7.04199 2.86378 6.92047 3.15716 6.92047 3.46306C6.92047 3.76896 7.04199 4.06234 7.25829 4.27865C7.4746 4.49495 7.76798 4.61647 8.07388 4.61647ZM14.9943 12.6904C15.3003 12.6904 15.5936 12.5688 15.8099 12.3525C16.0262 12.1362 16.1478 11.8428 16.1478 11.5369C16.1478 11.231 16.0262 10.9377 15.8099 10.7214C15.5936 10.505 15.3003 10.3835 14.9943 10.3835C14.6884 10.3835 14.3951 10.505 14.1788 10.7214C13.9625 10.9377 13.8409 11.231 13.8409 11.5369C13.8409 11.8428 13.9625 12.1362 14.1788 12.3525C14.3951 12.5688 14.6884 12.6904 14.9943 12.6904Z" fill="#FFE7D9"/>
</svg>
